<svg xmlns="http://www.w3.org/2000/svg" width="375" viewBox="0 0 375 375" height="375" version="1.0"><defs><clipPath id="a"><path d="M 237 194 L 272 194 L 272 226 L 237 226 Z M 237 194"/></clipPath><clipPath id="b"><path d="M 278.367188 91.269531 L 347.574219 131.894531 L 270.5 263.195312 L 201.292969 222.570312 Z M 278.367188 91.269531"/></clipPath><clipPath id="c"><path d="M 278.367188 91.269531 L 347.574219 131.894531 L 270.5 263.195312 L 201.292969 222.570312 Z M 278.367188 91.269531"/></clipPath><clipPath id="d"><path d="M 231 202 L 267 202 L 267 235 L 231 235 Z M 231 202"/></clipPath><clipPath id="e"><path d="M 278.367188 91.269531 L 347.574219 131.894531 L 270.5 263.195312 L 201.292969 222.570312 Z M 278.367188 91.269531"/></clipPath><clipPath id="f"><path d="M 278.367188 91.269531 L 347.574219 131.894531 L 270.5 263.195312 L 201.292969 222.570312 Z M 278.367188 91.269531"/></clipPath><clipPath id="g"><path d="M 226 211 L 262 211 L 262 244 L 226 244 Z M 226 211"/></clipPath><clipPath id="h"><path d="M 278.367188 91.269531 L 347.574219 131.894531 L 270.5 263.195312 L 201.292969 222.570312 Z M 278.367188 91.269531"/></clipPath><clipPath id="i"><path d="M 278.367188 91.269531 L 347.574219 131.894531 L 270.5 263.195312 L 201.292969 222.570312 Z M 278.367188 91.269531"/></clipPath><clipPath id="j"><path d="M 228 222 L 252 222 L 252 245 L 228 245 Z M 228 222"/></clipPath><clipPath id="k"><path d="M 278.367188 91.269531 L 347.574219 131.894531 L 270.5 263.195312 L 201.292969 222.570312 Z M 278.367188 91.269531"/></clipPath><clipPath id="l"><path d="M 278.367188 91.269531 L 347.574219 131.894531 L 270.5 263.195312 L 201.292969 222.570312 Z M 278.367188 91.269531"/></clipPath><clipPath id="m"><path d="M 241 125 L 322 125 L 322 220 L 241 220 Z M 241 125"/></clipPath><clipPath id="n"><path d="M 278.367188 91.269531 L 347.574219 131.894531 L 270.5 263.195312 L 201.292969 222.570312 Z M 278.367188 91.269531"/></clipPath><clipPath id="o"><path d="M 278.367188 91.269531 L 347.574219 131.894531 L 270.5 263.195312 L 201.292969 222.570312 Z M 278.367188 91.269531"/></clipPath><clipPath id="p"><path d="M 289 105 L 329 105 L 329 137 L 289 137 Z M 289 105"/></clipPath><clipPath id="q"><path d="M 278.367188 91.269531 L 347.574219 131.894531 L 270.5 263.195312 L 201.292969 222.570312 Z M 278.367188 91.269531"/></clipPath><clipPath id="r"><path d="M 278.367188 91.269531 L 347.574219 131.894531 L 270.5 263.195312 L 201.292969 222.570312 Z M 278.367188 91.269531"/></clipPath><clipPath id="s"><path d="M 257 140 L 309 140 L 309 182 L 257 182 Z M 257 140"/></clipPath><clipPath id="t"><path d="M 278.367188 91.269531 L 347.574219 131.894531 L 270.5 263.195312 L 201.292969 222.570312 Z M 278.367188 91.269531"/></clipPath><clipPath id="u"><path d="M 278.367188 91.269531 L 347.574219 131.894531 L 270.5 263.195312 L 201.292969 222.570312 Z M 278.367188 91.269531"/></clipPath></defs><g clip-path="url(#a)"><g clip-path="url(#b)"><g clip-path="url(#c)"><path fill="#CAE8FF" d="M 263.234375 223.652344 L 239.488281 201.707031 C 239.429688 201.648438 239.371094 201.589844 239.320312 201.515625 C 238.886719 201.097656 238.515625 200.621094 238.210938 200.140625 C 237.519531 199.132812 237.097656 198.023438 237.113281 197.003906 C 237.117188 196.402344 237.28125 195.523438 238.019531 194.863281 C 238.871094 194.128906 240.207031 193.957031 241.660156 194.230469 C 242.183594 194.328125 242.730469 194.511719 243.277344 194.734375 C 243.589844 194.875 243.894531 194.957031 244.207031 195.140625 C 244.777344 195.476562 245.3125 195.882812 245.796875 196.332031 L 256.050781 205.820312 L 257.292969 206.96875 L 269.558594 218.285156 C 269.617188 218.34375 269.667969 218.417969 269.726562 218.476562 C 270.160156 218.894531 270.53125 219.371094 270.84375 219.832031 C 271.527344 220.859375 271.941406 221.941406 271.929688 222.957031 C 271.925781 223.5625 271.757812 224.441406 271.019531 225.101562 C 270.167969 225.835938 268.832031 226.003906 267.378906 225.734375 C 266.542969 225.570312 265.695312 225.304688 264.863281 224.816406 C 264.339844 224.507812 263.84375 224.125 263.402344 223.726562 C 263.359375 223.675781 263.296875 223.664062 263.253906 223.617188 Z M 262.949219 215.707031 C 262.636719 216.039062 262.65625 216.5625 262.988281 216.871094 L 267.773438 221.289062 C 267.816406 221.335938 267.867188 221.367188 267.917969 221.398438 C 267.9375 221.40625 267.964844 221.398438 268 221.421875 C 268.304688 221.578125 268.6875 221.519531 268.957031 221.261719 C 269.265625 220.929688 269.246094 220.40625 268.898438 220.085938 L 268.820312 220.019531 L 264.113281 215.671875 C 263.78125 215.359375 263.257812 215.378906 262.949219 215.707031 Z M 262.949219 215.707031" fill-rule="evenodd"/></g></g></g><g clip-path="url(#d)"><g clip-path="url(#e)"><g clip-path="url(#f)"><path fill="#CAE8FF" d="M 240.59375 205.191406 L 256.035156 219.449219 L 261.714844 224.691406 L 264.367188 227.132812 C 265.878906 228.53125 266.765625 230.285156 266.753906 231.8125 C 266.738281 232.433594 266.582031 233.296875 265.847656 233.957031 C 264.507812 235.125 261.980469 235.015625 259.671875 233.660156 C 259.289062 233.433594 258.929688 233.132812 258.5625 232.84375 C 258.40625 232.707031 258.207031 232.613281 258.0625 232.460938 L 257.078125 231.554688 L 240.191406 215.941406 L 238.660156 214.53125 L 234.316406 210.515625 C 232.804688 209.117188 231.910156 207.378906 231.929688 205.832031 C 231.933594 205.230469 232.101562 204.351562 232.839844 203.6875 C 233.6875 202.957031 235.027344 202.785156 236.476562 203.054688 C 237.003906 203.15625 237.550781 203.335938 238.09375 203.5625 C 238.410156 203.703125 238.710938 203.785156 239.023438 203.96875 C 239.597656 204.304688 240.128906 204.710938 240.613281 205.160156 Z M 258.117188 225.648438 L 262.722656 229.890625 C 262.765625 229.9375 262.816406 229.96875 262.871094 230 C 263.199219 230.191406 263.628906 230.140625 263.890625 229.851562 C 264.199219 229.523438 264.179688 229 263.832031 228.679688 L 259.039062 224.234375 C 258.707031 223.925781 258.183594 223.945312 257.875 224.273438 C 257.785156 224.382812 257.785156 224.5 257.761719 224.625 C 257.6875 224.910156 257.710938 225.226562 257.929688 225.449219 L 258.125 225.632812 Z M 258.117188 225.648438" fill-rule="evenodd"/></g></g></g><g clip-path="url(#g)"><g clip-path="url(#h)"><g clip-path="url(#i)"><path fill="#CAE8FF" d="M 238.070312 216.488281 L 256.664062 233.6875 L 258.058594 234.972656 L 259.164062 235.992188 C 260.660156 237.382812 261.574219 239.128906 261.550781 240.675781 C 261.539062 241.296875 261.382812 242.15625 260.644531 242.820312 C 259.304688 243.988281 256.777344 243.878906 254.484375 242.53125 C 254.191406 242.359375 253.9375 242.117188 253.660156 241.90625 C 253.421875 241.71875 253.125 241.546875 252.878906 241.332031 L 252.371094 240.847656 L 231.277344 221.34375 L 230.058594 220.234375 L 229.125 219.359375 C 227.613281 217.960938 226.71875 216.222656 226.738281 214.675781 C 226.742188 213.796875 227.0625 213.050781 227.644531 212.535156 C 228.984375 211.367188 231.511719 211.476562 233.804688 212.820312 C 234.378906 213.15625 234.910156 213.5625 235.394531 214.011719 L 236.695312 215.214844 L 238.054688 216.480469 Z M 253.882812 233.101562 C 253.550781 232.789062 253.027344 232.808594 252.714844 233.136719 C 252.394531 233.484375 252.425781 233.992188 252.757812 234.300781 L 255.484375 236.8125 L 256.761719 237.980469 L 257.542969 238.71875 C 257.582031 238.765625 257.636719 238.796875 257.6875 238.824219 C 258.019531 239.019531 258.445312 238.96875 258.707031 238.679688 C 259.019531 238.351562 259 237.828125 258.648438 237.503906 L 257.449219 236.40625 L 256.1875 235.222656 L 253.847656 233.082031 Z M 253.882812 233.101562" fill-rule="evenodd"/></g></g></g><g clip-path="url(#j)"><g clip-path="url(#k)"><g clip-path="url(#l)"><path fill="#CAE8FF" d="M 230.277344 222.6875 L 251.074219 241.902344 C 246.570312 245.078125 240.453125 245.558594 235.382812 242.582031 C 228.492188 238.535156 226.164062 229.652344 230.199219 222.78125 C 230.21875 222.746094 230.257812 222.722656 230.277344 222.6875 Z M 234.761719 238.632812 C 235.105469 238.324219 235.113281 237.792969 234.808594 237.472656 C 232.4375 234.917969 231.433594 231.375 232.128906 227.964844 C 232.203125 227.519531 231.914062 227.09375 231.488281 226.984375 C 231.054688 226.890625 230.601562 227.183594 230.511719 227.621094 C 229.71875 231.554688 230.882812 235.65625 233.617188 238.589844 C 233.675781 238.648438 233.738281 238.707031 233.804688 238.746094 C 234.117188 238.929688 234.507812 238.902344 234.789062 238.625 Z M 234.761719 238.632812" fill-rule="evenodd"/></g></g></g><g clip-path="url(#m)"><g clip-path="url(#n)"><g clip-path="url(#o)"><path fill="#CAE8FF" d="M 288.007812 201.097656 C 281.511719 204.007812 275.914062 206.542969 273.699219 209.800781 L 273.648438 209.886719 L 269.9375 216.207031 L 270.867188 217.050781 L 272.105469 218.199219 L 273.527344 219.523438 L 277.730469 212.355469 C 278.429688 211.367188 280.003906 210.316406 282.0625 209.195312 C 284.289062 207.988281 287.085938 206.722656 289.976562 205.417969 C 290.859375 205.027344 291.601562 204.671875 292.105469 204.457031 C 292.933594 204.082031 293.667969 203.742188 294.242188 203.476562 C 297.648438 201.890625 302.6875 199.195312 307.316406 195.441406 C 310.574219 192.792969 313.652344 189.621094 315.808594 185.949219 C 321.386719 176.449219 322.574219 165.554688 319.960938 155.644531 C 317.363281 145.71875 311 136.792969 301.449219 131.1875 C 291.917969 125.59375 281.007812 124.378906 271.089844 126.957031 C 261.152344 129.523438 252.230469 135.855469 246.652344 145.355469 C 244.488281 149.042969 243.226562 153.261719 242.492188 157.414062 C 241.464844 163.300781 241.574219 169 241.851562 172.746094 C 241.894531 173.304688 241.949219 174.128906 242.039062 175.089844 C 242.078125 175.625 242.164062 176.464844 242.238281 177.417969 C 242.457031 179.945312 242.664062 182.414062 242.761719 184.519531 C 242.855469 186.625 242.8125 188.484375 242.566406 189.941406 L 242.429688 190.769531 L 243.050781 191.34375 L 244.460938 192.640625 L 246.363281 194.40625 L 247.015625 191.90625 C 247.488281 190.066406 247.621094 187.8125 247.546875 185.234375 C 247.488281 182.710938 247.238281 179.957031 246.996094 177.023438 C 246.917969 176.046875 246.84375 175.257812 246.796875 174.742188 C 246.75 174.105469 246.679688 173.347656 246.625 172.449219 C 246.410156 169.511719 246.304688 165.28125 246.84375 160.78125 C 247.371094 156.34375 248.5 151.675781 250.804688 147.792969 C 255.71875 139.414062 263.601562 133.824219 272.324219 131.570312 C 281.050781 129.3125 290.671875 130.378906 299.078125 135.3125 C 307.480469 140.242188 313.082031 148.117188 315.382812 156.84375 C 317.675781 165.589844 316.632812 175.195312 311.726562 183.554688 C 309.855469 186.742188 307.160156 189.507812 304.273438 191.839844 C 300.050781 195.25 295.378906 197.722656 292.242188 199.207031 C 291.3125 199.640625 289.984375 200.234375 288.671875 200.835938 L 288.058594 201.125 Z M 288.007812 201.097656"/></g></g></g><g clip-path="url(#p)"><g clip-path="url(#q)"><g clip-path="url(#r)"><path fill="#7ED957" d="M 304.460938 127.371094 C 305.886719 128.207031 307.730469 127.730469 308.5625 126.308594 L 314.609375 116.011719 C 315.441406 114.59375 314.957031 112.75 313.535156 111.914062 C 312.109375 111.078125 310.265625 111.554688 309.433594 112.976562 L 303.386719 123.273438 C 302.554688 124.691406 303.039062 126.535156 304.460938 127.371094 Z M 313.171875 135.160156 C 312.167969 133.847656 312.4375 131.960938 313.738281 130.976562 L 323.265625 123.769531 C 324.578125 122.773438 326.46875 123.046875 327.457031 124.347656 C 328.460938 125.65625 328.191406 127.546875 326.894531 128.53125 L 317.363281 135.734375 C 316.054688 136.734375 314.160156 136.460938 313.171875 135.160156 Z M 292.003906 123.339844 C 293.636719 123.578125 295.15625 122.421875 295.382812 120.808594 L 297.027344 108.972656 C 297.261719 107.34375 296.101562 105.824219 294.484375 105.59375 C 292.847656 105.355469 291.328125 106.511719 291.105469 108.128906 L 289.457031 119.960938 C 289.226562 121.589844 290.386719 123.113281 292.003906 123.339844 Z M 292.003906 123.339844" fill-rule="evenodd"/></g></g></g><g clip-path="url(#s)"><g clip-path="url(#t)"><g clip-path="url(#u)"><path fill="#7ED957" d="M 284.882812 156.230469 C 285.1875 155.828125 285.761719 155.769531 286.164062 156.074219 C 286.566406 156.382812 286.628906 156.953125 286.324219 157.355469 C 285.75 158.089844 285.53125 158.984375 285.625 159.855469 C 285.730469 160.710938 286.15625 161.539062 286.890625 162.113281 C 287.296875 162.417969 287.359375 162.992188 287.050781 163.394531 C 286.746094 163.792969 286.171875 163.855469 285.769531 163.546875 C 284.636719 162.652344 283.972656 161.398438 283.816406 160.074219 C 283.828125 160.058594 283.808594 160.046875 283.820312 160.03125 C 282.675781 159.753906 280.636719 158.929688 280.355469 156.507812 C 280.296875 156.007812 280.660156 155.546875 281.160156 155.492188 C 281.660156 155.433594 282.125 155.800781 282.179688 156.296875 C 282.320312 157.453125 283.261719 157.957031 283.953125 158.175781 C 284.121094 157.484375 284.4375 156.832031 284.898438 156.242188 Z M 298.292969 166.476562 Z M 289.292969 152.375 Z M 288.417969 150.765625 Z M 263.191406 161.324219 Z M 268.21875 155.152344 Z M 270.046875 155.132812 Z M 263.359375 163.148438 Z M 290.167969 176.578125 C 291.542969 176.222656 292.78125 175.34375 293.5625 174.011719 C 294.335938 172.695312 294.5 171.1875 294.148438 169.792969 C 293.789062 168.417969 292.90625 167.179688 291.570312 166.394531 C 291.136719 166.140625 290.972656 165.578125 291.238281 165.128906 C 291.492188 164.695312 292.070312 164.546875 292.503906 164.800781 C 294.273438 165.839844 295.457031 167.488281 295.921875 169.320312 C 296.402344 171.164062 296.179688 173.171875 295.15625 174.921875 C 294.871094 175.40625 294.542969 175.84375 294.175781 176.230469 C 294.582031 176.65625 295.03125 177.039062 295.570312 177.355469 C 298.382812 179.003906 301.964844 178.195312 303.804688 175.578125 C 305.445312 175.5625 307.042969 174.710938 307.9375 173.1875 C 308.996094 171.386719 308.753906 169.171875 307.492188 167.664062 C 306.328125 168.378906 305.003906 168.71875 303.6875 168.738281 C 301.792969 168.742188 299.902344 168.027344 298.4375 166.585938 L 298.378906 166.527344 L 298.320312 166.425781 C 298.050781 166.011719 298.164062 165.421875 298.59375 165.164062 C 298.960938 164.9375 299.445312 164.988281 299.742188 165.28125 C 300.832031 166.363281 302.265625 166.902344 303.691406 166.902344 C 305.117188 166.898438 306.53125 166.355469 307.613281 165.269531 C 308.183594 164.695312 308.605469 164.015625 308.871094 163.285156 C 309.136719 161.441406 308.765625 159.40625 307.734375 157.589844 C 307.671875 157.53125 307.613281 157.472656 307.554688 157.414062 C 307.410156 157.261719 307.304688 157.082031 307.285156 156.882812 C 307.144531 156.683594 306.996094 156.460938 306.828125 156.269531 C 305.105469 154.113281 302.695312 152.886719 300.328125 152.707031 C 300.226562 150.691406 299.136719 148.773438 297.261719 147.671875 C 296.113281 147 294.839844 146.742188 293.617188 146.835938 C 293.539062 147.328125 293.402344 147.804688 293.226562 148.261719 C 292.542969 150.023438 291.199219 151.515625 289.332031 152.351562 C 288.921875 152.527344 288.433594 152.40625 288.199219 152.011719 C 287.929688 151.597656 288.039062 151.011719 288.472656 150.75 L 288.601562 150.6875 C 290.015625 150.074219 291.035156 148.929688 291.527344 147.613281 C 291.8125 146.847656 291.949219 146.019531 291.878906 145.1875 C 291.355469 144.089844 290.515625 143.132812 289.40625 142.480469 C 286.558594 140.808594 282.914062 141.648438 281.09375 144.351562 C 280.609375 143.066406 279.695312 141.921875 278.425781 141.179688 C 278.21875 141.054688 278.019531 140.960938 277.816406 140.867188 C 277.6875 140.886719 277.570312 140.886719 277.441406 140.832031 C 275.960938 140.40625 274.460938 140.617188 273.214844 141.308594 C 271.972656 141.996094 270.984375 143.160156 270.5625 144.636719 C 270.140625 146.109375 270.355469 147.609375 271.050781 148.855469 C 271.742188 150.101562 272.914062 151.089844 274.390625 151.515625 L 274.503906 151.558594 L 274.609375 151.621094 C 275.042969 151.875 275.203125 152.433594 274.941406 152.886719 C 274.714844 153.265625 274.246094 153.433594 273.859375 153.296875 C 271.914062 152.714844 270.382812 151.421875 269.464844 149.765625 C 268.546875 148.109375 268.253906 146.097656 268.828125 144.128906 L 268.871094 144.015625 C 268.964844 143.699219 269.089844 143.402344 269.21875 143.105469 C 266.476562 142.167969 263.375 143.234375 261.851562 145.832031 C 260.96875 147.335938 260.78125 149.089844 261.234375 150.660156 C 259.933594 151.128906 258.792969 152.039062 258.03125 153.339844 C 257.53125 154.1875 257.246094 155.113281 257.191406 156.035156 C 257.230469 156.128906 257.253906 156.210938 257.265625 156.308594 C 257.398438 157.832031 258.160156 159.164062 259.253906 160.082031 C 260.347656 161.003906 261.792969 161.480469 263.316406 161.351562 C 264.839844 161.222656 266.171875 160.46875 267.078125 159.394531 C 268 158.304688 268.472656 156.863281 268.339844 155.339844 L 268.332031 155.195312 C 268.375 154.6875 268.804688 154.308594 269.296875 154.34375 C 269.746094 154.375 270.121094 154.734375 270.144531 155.167969 C 270.328125 157.207031 269.679688 159.105469 268.472656 160.5625 C 267.265625 162.019531 265.5 163.003906 263.457031 163.179688 C 263.183594 163.207031 262.921875 163.214844 262.644531 163.214844 C 262.613281 163.265625 262.582031 163.316406 262.550781 163.371094 C 260.816406 166.328125 261.808594 170.125 264.777344 171.867188 C 266.359375 172.796875 268.175781 172.957031 269.789062 172.4375 L 269.910156 172.390625 C 269.976562 172.476562 270.03125 172.578125 270.082031 172.65625 C 268.472656 175.597656 265.449219 178.636719 260.949219 181.769531 C 267.1875 181.800781 273.148438 179.363281 278.824219 174.503906 C 278.929688 174.566406 279.023438 174.644531 279.144531 174.714844 C 280.671875 175.613281 282.496094 175.566406 283.9375 174.78125 C 284.398438 173.636719 284.464844 172.414062 284.179688 171.269531 C 283.816406 169.894531 282.933594 168.65625 281.597656 167.871094 C 281.164062 167.617188 281.011719 167.039062 281.265625 166.605469 C 281.519531 166.171875 282.082031 166.015625 282.53125 166.277344 C 284.304688 167.316406 285.484375 168.964844 285.949219 170.796875 C 286.375 172.421875 286.257812 174.167969 285.503906 175.773438 C 285.527344 175.808594 285.554688 175.847656 285.578125 175.886719 C 285.710938 175.894531 285.871094 175.941406 285.992188 176.011719 C 287.3125 176.789062 288.824219 176.953125 290.21875 176.609375 Z M 293.980469 154.730469 C 293.921875 154.230469 294.289062 153.769531 294.789062 153.714844 C 295.285156 153.660156 295.75 154.023438 295.808594 154.523438 C 295.945312 155.675781 296.886719 156.179688 297.578125 156.398438 C 297.75 155.707031 298.0625 155.054688 298.523438 154.464844 C 298.832031 154.0625 299.402344 154.003906 299.804688 154.308594 C 300.210938 154.617188 300.273438 155.1875 299.964844 155.589844 C 299.394531 156.324219 299.171875 157.21875 299.269531 158.089844 C 299.375 158.945312 299.808594 159.757812 300.535156 160.347656 C 300.9375 160.652344 301 161.226562 300.695312 161.625 C 300.386719 162.027344 299.816406 162.089844 299.414062 161.78125 C 298.28125 160.886719 297.617188 159.632812 297.460938 158.308594 C 297.46875 158.292969 297.453125 158.28125 297.460938 158.261719 C 296.316406 157.988281 294.28125 157.164062 293.996094 154.742188 Z M 272.230469 161.558594 C 273.363281 162.453125 274.027344 163.707031 274.183594 165.03125 C 274.171875 165.046875 274.191406 165.058594 274.179688 165.078125 C 275.324219 165.351562 277.363281 166.175781 277.644531 168.597656 C 277.703125 169.097656 277.339844 169.558594 276.839844 169.617188 C 276.339844 169.671875 275.875 169.304688 275.820312 168.808594 C 275.679688 167.65625 274.738281 167.148438 274.050781 166.929688 C 273.878906 167.621094 273.5625 168.273438 273.101562 168.863281 C 272.792969 169.265625 272.222656 169.324219 271.820312 169.019531 C 271.414062 168.710938 271.355469 168.140625 271.660156 167.738281 C 272.230469 167.003906 272.453125 166.109375 272.355469 165.238281 C 272.25 164.386719 271.816406 163.574219 271.089844 162.984375 C 270.6875 162.675781 270.625 162.105469 270.929688 161.703125 C 271.238281 161.300781 271.808594 161.242188 272.214844 161.546875 Z M 272.230469 161.558594" fill-rule="evenodd"/></g></g></g><g fill="#F4F6FC"><g><g><path d="M 84.875 -73.6875 C 88.707031 -70.175781 89.84375 -65.9375 88.28125 -60.96875 C 88 -60.101562 87.640625 -59.265625 87.203125 -58.453125 C 86.410156 -57.015625 85.5 -55.664062 84.46875 -54.40625 C 83.445312 -53.144531 82.359375 -51.9375 81.203125 -50.78125 C 80.429688 -49.96875 79.53125 -49.691406 78.5 -49.953125 C 78.207031 -49.984375 78.019531 -50.128906 77.9375 -50.390625 C 77.882812 -50.648438 77.953125 -50.863281 78.140625 -51.03125 C 80.015625 -52.84375 81.65625 -54.847656 83.0625 -57.046875 C 84.070312 -58.503906 84.804688 -60.082031 85.265625 -61.78125 C 86.390625 -66.382812 85.128906 -70.179688 81.484375 -73.171875 C 79.753906 -74.523438 77.820312 -75.476562 75.6875 -76.03125 C 73.675781 -76.5625 71.65625 -76.910156 69.625 -77.078125 C 67.601562 -77.242188 65.566406 -77.253906 63.515625 -77.109375 C 60.390625 -76.921875 57.285156 -76.554688 54.203125 -76.015625 C 51.128906 -75.472656 48.066406 -74.832031 45.015625 -74.09375 C 41.035156 -73.101562 37.132812 -71.894531 33.3125 -70.46875 C 29.488281 -69.050781 25.78125 -67.359375 22.1875 -65.390625 C 18.707031 -63.523438 15.484375 -61.285156 12.515625 -58.671875 C 9.867188 -56.335938 7.695312 -53.617188 6 -50.515625 C 3.8125 -46.378906 3.992188 -42.347656 6.546875 -38.421875 C 8.171875 -36.066406 10.101562 -33.984375 12.34375 -32.171875 C 15.820312 -29.296875 19.488281 -26.707031 23.34375 -24.40625 C 26.59375 -22.457031 29.84375 -20.535156 33.09375 -18.640625 C 35.25 -17.390625 37.394531 -16.132812 39.53125 -14.875 C 41.050781 -13.976562 42.546875 -13.054688 44.015625 -12.109375 C 45.484375 -11.160156 46.910156 -10.140625 48.296875 -9.046875 C 49.128906 -8.347656 50.050781 -8.175781 51.0625 -8.53125 C 54.507812 -9.539062 58.015625 -10.257812 61.578125 -10.6875 C 61.691406 -10.6875 61.804688 -10.703125 61.921875 -10.734375 C 62.734375 -10.867188 63.523438 -10.867188 64.296875 -10.734375 C 64.492188 -10.679688 64.664062 -10.585938 64.8125 -10.453125 C 64.957031 -10.328125 65.03125 -10.128906 65.03125 -9.859375 C 65.03125 -9.597656 64.945312 -9.398438 64.78125 -9.265625 C 64.625 -9.140625 64.453125 -9.078125 64.265625 -9.078125 C 63.015625 -9.054688 61.800781 -8.929688 60.625 -8.703125 C 59.445312 -8.472656 58.285156 -8.210938 57.140625 -7.921875 C 56.210938 -7.691406 55.300781 -7.488281 54.40625 -7.3125 C 54.289062 -7.289062 54.179688 -7.265625 54.078125 -7.234375 C 53.648438 -7.171875 53.222656 -7.066406 52.796875 -6.921875 C 52.378906 -6.773438 52.015625 -6.5625 51.703125 -6.28125 C 51.921875 -5.695312 52.234375 -5.222656 52.640625 -4.859375 C 52.816406 -4.648438 52.988281 -4.4375 53.15625 -4.21875 C 53.875 -3.257812 54.5 -2.269531 55.03125 -1.25 C 55.570312 -0.226562 55.972656 0.851562 56.234375 2 C 56.859375 4.96875 55.890625 7.253906 53.328125 8.859375 C 52.460938 9.367188 51.5625 9.800781 50.625 10.15625 C 47.28125 11.363281 43.84375 11.867188 40.3125 11.671875 C 38.925781 11.578125 37.628906 11.226562 36.421875 10.625 C 34.773438 9.769531 33.691406 8.5625 33.171875 7 C 32.660156 5.445312 32.8125 3.835938 33.625 2.171875 C 34.164062 1.097656 34.882812 0.175781 35.78125 -0.59375 C 36.90625 -1.59375 38.101562 -2.488281 39.375 -3.28125 C 40.65625 -4.070312 41.972656 -4.800781 43.328125 -5.46875 C 43.898438 -5.757812 44.460938 -6.046875 45.015625 -6.328125 C 45.304688 -6.472656 45.59375 -6.617188 45.875 -6.765625 C 45.90625 -7.078125 45.851562 -7.316406 45.71875 -7.484375 C 45.59375 -7.660156 45.441406 -7.804688 45.265625 -7.921875 C 45.203125 -7.953125 45.144531 -8 45.09375 -8.0625 C 42.769531 -9.84375 40.335938 -11.460938 37.796875 -12.921875 C 34.722656 -14.742188 31.628906 -16.546875 28.515625 -18.328125 C 27.222656 -19.066406 25.929688 -19.828125 24.640625 -20.609375 C 20.148438 -23.203125 15.832031 -26.046875 11.6875 -29.140625 C 9.125 -31.054688 6.8125 -33.21875 4.75 -35.625 C 3.738281 -36.863281 2.890625 -38.203125 2.203125 -39.640625 C 0.734375 -42.710938 0.585938 -45.878906 1.765625 -49.140625 C 2.367188 -50.804688 3.171875 -52.347656 4.171875 -53.765625 C 5.179688 -55.191406 6.296875 -56.539062 7.515625 -57.8125 C 10.222656 -60.601562 13.210938 -62.988281 16.484375 -64.96875 C 21.921875 -68.3125 27.660156 -70.988281 33.703125 -73 C 41.242188 -75.53125 48.953125 -77.332031 56.828125 -78.40625 C 59.554688 -78.769531 62.296875 -78.988281 65.046875 -79.0625 C 67.804688 -79.132812 70.550781 -78.953125 73.28125 -78.515625 C 74.914062 -78.296875 76.5 -77.953125 78.03125 -77.484375 C 79.570312 -77.023438 81.050781 -76.363281 82.46875 -75.5 C 83.320312 -74.945312 84.125 -74.34375 84.875 -73.6875 Z M 48.84375 -4.546875 C 48.382812 -5.015625 47.851562 -5.085938 47.25 -4.765625 C 45.71875 -4.085938 44.242188 -3.320312 42.828125 -2.46875 C 41.410156 -1.625 40.054688 -0.664062 38.765625 0.40625 C 38.066406 1.007812 37.488281 1.710938 37.03125 2.515625 C 36.164062 4.160156 36.070312 5.6875 36.75 7.09375 C 37.425781 8.5 38.671875 9.363281 40.484375 9.6875 C 40.921875 9.738281 41.304688 9.78125 41.640625 9.8125 C 41.753906 9.8125 41.851562 9.8125 41.9375 9.8125 C 44.707031 9.726562 47.222656 9.164062 49.484375 8.125 C 52.304688 6.914062 53.332031 4.828125 52.5625 1.859375 C 52.238281 0.628906 51.753906 -0.507812 51.109375 -1.5625 C 50.460938 -2.613281 49.707031 -3.609375 48.84375 -4.546875 Z M 48.84375 -4.546875" transform="translate(67.933 199.784)"/></g></g></g><g fill="#F4F6FC"><g><g><path d="M 22.1875 -10.078125 C 21.832031 -8.984375 21.117188 -7.722656 20.046875 -6.296875 C 18.984375 -4.878906 17.65625 -3.96875 16.0625 -3.5625 C 14.46875 -3.164062 13.085938 -3.222656 11.921875 -3.734375 C 10.765625 -4.253906 10.125 -5.640625 10 -7.890625 C 8.675781 -5.328125 7.414062 -3.6875 6.21875 -2.96875 C 5.03125 -2.25 3.785156 -1.972656 2.484375 -2.140625 C 1.023438 -2.367188 0.0390625 -2.9375 -0.46875 -3.84375 C -0.988281 -4.75 -1.164062 -5.789062 -1 -6.96875 C -0.832031 -8.15625 -0.472656 -9.289062 0.078125 -10.375 C 0.503906 -11.1875 1.097656 -11.9375 1.859375 -12.625 C 2.628906 -13.320312 3.4375 -13.867188 4.28125 -14.265625 C 5.3125 -14.785156 6.347656 -15.03125 7.390625 -15 C 8.441406 -14.976562 9.5625 -14.632812 10.75 -13.96875 C 10.769531 -13.9375 10.78125 -13.960938 10.78125 -14.046875 C 10.78125 -14.160156 10.8125 -14.304688 10.875 -14.484375 C 10.9375 -14.660156 11.039062 -14.800781 11.1875 -14.90625 C 11.570312 -15.195312 12.03125 -15.34375 12.5625 -15.34375 C 13.101562 -15.34375 13.519531 -15.070312 13.8125 -14.53125 C 13.863281 -13.84375 13.789062 -12.960938 13.59375 -11.890625 C 13.164062 -9.535156 13.164062 -7.835938 13.59375 -6.796875 C 14.019531 -5.765625 14.78125 -5.285156 15.875 -5.359375 C 16.96875 -5.429688 18.382812 -6.507812 20.125 -8.59375 C 21.863281 -10.6875 22.550781 -11.179688 22.1875 -10.078125 Z M 2.890625 -4.546875 C 3.484375 -4.117188 4.171875 -4.175781 4.953125 -4.71875 C 5.734375 -5.269531 6.484375 -6.050781 7.203125 -7.0625 C 7.921875 -8.070312 8.523438 -9.078125 9.015625 -10.078125 C 9.503906 -11.085938 9.773438 -11.832031 9.828125 -12.3125 C 8.359375 -13.101562 7.097656 -13.238281 6.046875 -12.71875 C 5.003906 -12.207031 4.171875 -11.363281 3.546875 -10.1875 C 2.929688 -9.019531 2.566406 -7.882812 2.453125 -6.78125 C 2.335938 -5.675781 2.484375 -4.929688 2.890625 -4.546875 Z M 2.890625 -4.546875" transform="translate(129.992 199.784)"/></g></g></g><g fill="#F4F6FC"><g><g><path d="M 16.21875 -7.546875 C 17.226562 -9.140625 17.828125 -10.148438 18.015625 -10.578125 C 18.203125 -11.015625 18.351562 -11 18.46875 -10.53125 C 18.582031 -10.0625 18.257812 -9 17.5 -7.34375 C 16.738281 -5.6875 15.796875 -4.410156 14.671875 -3.515625 C 13.546875 -2.617188 12.492188 -2.289062 11.515625 -2.53125 C 10.546875 -2.769531 9.851562 -3.445312 9.4375 -4.5625 C 9.019531 -5.675781 8.894531 -7.082031 9.0625 -8.78125 C 9.0625 -8.8125 9.070312 -8.882812 9.09375 -9 C 9.125 -9.289062 9.175781 -9.71875 9.25 -10.28125 C 9.320312 -10.84375 9.375 -11.421875 9.40625 -12.015625 C 9.4375 -12.617188 9.414062 -13.117188 9.34375 -13.515625 C 9.269531 -13.910156 9.09375 -14.046875 8.8125 -13.921875 C 8.113281 -13.546875 7.429688 -12.804688 6.765625 -11.703125 C 6.109375 -10.597656 5.507812 -9.441406 4.96875 -8.234375 C 4.4375 -7.023438 4.0625 -6.046875 3.84375 -5.296875 C 3.75 -5.054688 3.664062 -4.804688 3.59375 -4.546875 C 3.46875 -4.210938 3.335938 -3.875 3.203125 -3.53125 C 2.816406 -2.550781 2.15625 -2.171875 1.21875 -2.390625 C 0.695312 -2.503906 0.390625 -2.828125 0.296875 -3.359375 C 0.265625 -3.765625 0.25 -4.148438 0.25 -4.515625 C 0.25 -4.742188 0.238281 -4.957031 0.21875 -5.15625 C 0.164062 -8.0625 0.09375 -10.984375 0 -13.921875 C 0.03125 -14.265625 0.179688 -14.5 0.453125 -14.625 C 0.722656 -14.757812 1.050781 -14.828125 1.4375 -14.828125 C 1.71875 -14.828125 1.984375 -14.75 2.234375 -14.59375 C 2.492188 -14.4375 2.65625 -14.109375 2.71875 -13.609375 C 2.75 -13.441406 2.765625 -13.273438 2.765625 -13.109375 C 2.796875 -13.015625 2.8125 -12.925781 2.8125 -12.84375 C 2.863281 -12.4375 2.890625 -12.09375 2.890625 -11.8125 C 2.890625 -11.375 2.914062 -11.078125 2.96875 -10.921875 C 3.03125 -10.765625 3.15625 -10.769531 3.34375 -10.9375 C 3.53125 -11.113281 3.84375 -11.519531 4.28125 -12.15625 C 5.019531 -13.3125 5.941406 -14.285156 7.046875 -15.078125 C 8.046875 -15.796875 9.148438 -16.097656 10.359375 -15.984375 C 11.390625 -15.878906 12.082031 -15.335938 12.4375 -14.359375 C 12.582031 -13.859375 12.65625 -13.359375 12.65625 -12.859375 C 12.65625 -12.359375 12.617188 -11.851562 12.546875 -11.34375 C 12.523438 -10.8125 12.488281 -10.273438 12.4375 -9.734375 C 12.394531 -9.554688 12.363281 -9.382812 12.34375 -9.21875 C 12.164062 -7.351562 12.222656 -6.101562 12.515625 -5.46875 C 12.804688 -4.832031 13.242188 -4.617188 13.828125 -4.828125 C 14.421875 -5.046875 15.21875 -5.953125 16.21875 -7.546875 Z M 16.21875 -7.546875" transform="translate(149.774 199.784)"/></g></g></g><g fill="#F4F6FC"><g><g><path d="M 30.78125 -9.578125 C 30.894531 -9.796875 31.070312 -9.910156 31.3125 -9.921875 C 31.550781 -9.929688 31.757812 -9.78125 31.9375 -9.46875 C 32 -9.394531 31.9375 -9.175781 31.75 -8.8125 C 31.5625 -8.457031 31.304688 -8.050781 30.984375 -7.59375 C 30.671875 -7.144531 30.367188 -6.734375 30.078125 -6.359375 C 29.796875 -5.992188 29.597656 -5.75 29.484375 -5.625 C 28.191406 -4.1875 26.890625 -3.128906 25.578125 -2.453125 C 24.265625 -1.785156 22.84375 -1.644531 21.3125 -2.03125 C 19.789062 -2.414062 18.082031 -3.503906 16.1875 -5.296875 C 15.894531 -5.609375 15.601562 -5.921875 15.3125 -6.234375 C 15.238281 -6.328125 15.171875 -6.414062 15.109375 -6.5 C 14.796875 -6.84375 14.445312 -6.882812 14.0625 -6.625 C 13.664062 -6.34375 13.269531 -6.054688 12.875 -5.765625 C 12.519531 -5.503906 12.15625 -5.265625 11.78125 -5.046875 C 10.570312 -4.203125 9.289062 -3.492188 7.9375 -2.921875 C 6.5 -2.285156 4.988281 -2.035156 3.40625 -2.171875 C 0.9375 -2.460938 -0.34375 -3.832031 -0.4375 -6.28125 C -0.457031 -8 -0.0859375 -9.539062 0.671875 -10.90625 C 1.441406 -12.28125 2.507812 -13.289062 3.875 -13.9375 C 5.238281 -14.582031 6.8125 -14.707031 8.59375 -14.3125 C 8.789062 -14.28125 9.050781 -14.222656 9.375 -14.140625 C 9.570312 -14.078125 9.816406 -14.019531 10.109375 -13.96875 C 9.929688 -14.375 9.769531 -14.734375 9.625 -15.046875 C 9.363281 -15.566406 9.132812 -16.046875 8.9375 -16.484375 C 7.75 -18.921875 6.78125 -21.710938 6.03125 -24.859375 C 5.289062 -28.003906 4.925781 -31.226562 4.9375 -34.53125 C 4.957031 -37.84375 5.507812 -40.925781 6.59375 -43.78125 C 7.6875 -46.632812 9.503906 -48.984375 12.046875 -50.828125 C 13.648438 -51.910156 15.304688 -52.492188 17.015625 -52.578125 C 18.734375 -52.671875 20.351562 -52.300781 21.875 -51.46875 C 23.40625 -50.632812 24.644531 -49.378906 25.59375 -47.703125 C 26.820312 -45.398438 27.582031 -42.972656 27.875 -40.421875 C 28.394531 -36.304688 28.304688 -32.460938 27.609375 -28.890625 C 26.921875 -25.316406 25.703125 -21.941406 23.953125 -18.765625 C 22.203125 -15.585938 19.972656 -12.503906 17.265625 -9.515625 C 17.003906 -9.222656 16.863281 -8.992188 16.84375 -8.828125 C 16.832031 -8.660156 16.957031 -8.414062 17.21875 -8.09375 C 17.769531 -7.375 18.367188 -6.675781 19.015625 -6 C 19.660156 -5.320312 20.382812 -4.753906 21.1875 -4.296875 C 22.3125 -3.804688 23.515625 -3.796875 24.796875 -4.265625 C 26.078125 -4.742188 27.257812 -5.476562 28.34375 -6.46875 C 29.4375 -7.46875 30.25 -8.503906 30.78125 -9.578125 Z M 11.53125 -7.84375 C 11.875 -8.132812 11.898438 -8.460938 11.609375 -8.828125 C 11.441406 -9.035156 11.273438 -9.25 11.109375 -9.46875 C 10.628906 -10.050781 10.085938 -10.644531 9.484375 -11.25 C 8.890625 -11.851562 8.269531 -12.3125 7.625 -12.625 C 6.976562 -12.945312 6.320312 -12.972656 5.65625 -12.703125 C 4.738281 -12.273438 3.984375 -11.515625 3.390625 -10.421875 C 2.804688 -9.328125 2.460938 -8.203125 2.359375 -7.046875 C 2.253906 -5.898438 2.472656 -5.023438 3.015625 -4.421875 C 3.566406 -3.828125 4.503906 -3.769531 5.828125 -4.25 C 7.898438 -5.164062 9.800781 -6.363281 11.53125 -7.84375 Z M 15.890625 -12.109375 C 18.648438 -15.359375 20.710938 -18.554688 22.078125 -21.703125 C 23.441406 -24.859375 24.367188 -28.550781 24.859375 -32.78125 C 24.992188 -33.8125 25.054688 -35.160156 25.046875 -36.828125 C 25.035156 -38.503906 24.882812 -40.253906 24.59375 -42.078125 C 24.3125 -43.910156 23.796875 -45.570312 23.046875 -47.0625 C 22.304688 -48.5625 21.265625 -49.640625 19.921875 -50.296875 C 18.578125 -50.960938 16.859375 -50.960938 14.765625 -50.296875 C 12.460938 -48.941406 10.753906 -47.148438 9.640625 -44.921875 C 8.535156 -42.691406 7.90625 -40.210938 7.75 -37.484375 C 7.59375 -34.753906 7.769531 -31.960938 8.28125 -29.109375 C 8.800781 -26.253906 9.519531 -23.546875 10.4375 -20.984375 C 11.363281 -18.429688 12.359375 -16.207031 13.421875 -14.3125 C 13.535156 -14.082031 13.648438 -13.847656 13.765625 -13.609375 C 14.078125 -12.835938 14.535156 -12.140625 15.140625 -11.515625 C 15.234375 -11.585938 15.328125 -11.660156 15.421875 -11.734375 C 15.585938 -11.835938 15.742188 -11.960938 15.890625 -12.109375 Z M 15.890625 -12.109375" transform="translate(166.026 199.784)"/></g></g></g><g fill="#F4F6FC"><g><g><path d="M 19.078125 -9.21875 C 17.410156 -8.207031 15.5 -7.546875 13.34375 -7.234375 C 12.90625 -6.398438 12.472656 -5.679688 12.046875 -5.078125 C 10.941406 -3.785156 9.671875 -2.988281 8.234375 -2.6875 C 6.796875 -2.382812 5.503906 -2.460938 4.359375 -2.921875 C 4.328125 -2.953125 4.300781 -2.96875 4.28125 -2.96875 C 3.988281 -3.101562 3.695312 -3.203125 3.40625 -3.265625 C 3.125 -3.328125 2.828125 -3.269531 2.515625 -3.09375 C 2.335938 -3.007812 2.132812 -2.976562 1.90625 -3 C 1.851562 -3 1.804688 -3 1.765625 -3 C 0.734375 -3 0.203125 -3.515625 0.171875 -4.546875 C 0.148438 -5.597656 0.140625 -6.625 0.140625 -7.625 C 0.109375 -8.851562 0.0625 -10.078125 0 -11.296875 C -0.164062 -15.984375 -0.207031 -20.6875 -0.125 -25.40625 C -0.0390625 -30.125 0.0820312 -34.84375 0.25 -39.5625 C 0.289062 -40.019531 0.3125 -40.476562 0.3125 -40.9375 C 0.34375 -42 0.460938 -43.316406 0.671875 -44.890625 C 0.890625 -46.472656 1.195312 -47.992188 1.59375 -49.453125 C 2 -50.910156 2.488281 -51.984375 3.0625 -52.671875 C 3.582031 -53.421875 4.238281 -53.894531 5.03125 -54.09375 C 5.820312 -54.289062 6.585938 -54.257812 7.328125 -54 C 8.078125 -53.75 8.65625 -53.335938 9.0625 -52.765625 C 9.925781 -51.398438 10.382812 -49.472656 10.4375 -46.984375 C 10.5 -44.503906 10.285156 -41.738281 9.796875 -38.6875 C 9.304688 -35.632812 8.671875 -32.578125 7.890625 -29.515625 C 7.117188 -26.460938 6.316406 -23.679688 5.484375 -21.171875 C 4.648438 -18.671875 3.898438 -16.726562 3.234375 -15.34375 C 4.390625 -16.007812 5.316406 -16.425781 6.015625 -16.59375 C 6.722656 -16.757812 7.535156 -16.773438 8.453125 -16.640625 C 11.585938 -16.242188 13.421875 -14.488281 13.953125 -11.375 C 13.953125 -11.226562 13.953125 -11.097656 13.953125 -10.984375 C 13.972656 -10.867188 13.984375 -10.757812 13.984375 -10.65625 C 14.035156 -10.21875 14.097656 -9.867188 14.171875 -9.609375 C 14.242188 -9.347656 14.976562 -9.425781 16.375 -9.84375 C 17.78125 -10.257812 18.804688 -10.75 19.453125 -11.3125 C 20.097656 -11.875 20.503906 -12.113281 20.671875 -12.03125 C 21.335938 -11.300781 20.804688 -10.363281 19.078125 -9.21875 Z M 2.90625 -19.1875 C 3.007812 -19.28125 3.347656 -20.414062 3.921875 -22.59375 C 4.492188 -24.78125 5.101562 -27.484375 5.75 -30.703125 C 6.40625 -33.929688 6.925781 -37.160156 7.3125 -40.390625 C 7.707031 -43.628906 7.773438 -46.351562 7.515625 -48.5625 C 7.398438 -49.757812 7.210938 -50.722656 6.953125 -51.453125 C 6.703125 -52.179688 6.398438 -52.429688 6.046875 -52.203125 C 5.703125 -51.972656 5.34375 -51.035156 4.96875 -49.390625 C 4.382812 -46.941406 3.972656 -43.613281 3.734375 -39.40625 C 3.492188 -35.195312 3.316406 -31.046875 3.203125 -26.953125 C 3.109375 -23.816406 3.007812 -21.226562 2.90625 -19.1875 Z M 6.296875 -5.125 C 6.191406 -4.738281 6.289062 -4.539062 6.59375 -4.53125 C 6.894531 -4.519531 7.28125 -4.617188 7.75 -4.828125 C 8.21875 -5.046875 8.628906 -5.328125 8.984375 -5.671875 C 9.347656 -6.023438 9.519531 -6.390625 9.5 -6.765625 C 9.5 -6.796875 9.476562 -6.820312 9.4375 -6.84375 C 9.394531 -6.875 9.351562 -6.890625 9.3125 -6.890625 C 8.800781 -6.910156 8.328125 -6.804688 7.890625 -6.578125 C 7.460938 -6.347656 7.0625 -6.066406 6.6875 -5.734375 C 6.519531 -5.554688 6.390625 -5.351562 6.296875 -5.125 Z M 10.671875 -10.046875 C 10.722656 -11.046875 10.472656 -12.003906 9.921875 -12.921875 C 9.367188 -13.847656 8.675781 -14.457031 7.84375 -14.75 C 7.019531 -15.039062 6.21875 -14.753906 5.4375 -13.890625 C 4.863281 -13.128906 4.484375 -12.125 4.296875 -10.875 C 4.109375 -9.625 4.03125 -8.363281 4.0625 -7.09375 C 5.019531 -7.625 5.976562 -8.066406 6.9375 -8.421875 C 7.894531 -8.785156 8.890625 -9.023438 9.921875 -9.140625 C 10.160156 -9.171875 10.34375 -9.269531 10.46875 -9.4375 C 10.601562 -9.601562 10.671875 -9.804688 10.671875 -10.046875 Z M 10.671875 -10.046875" transform="translate(195.613 199.784)"/></g></g></g><g fill="#F4F6FC"><g><g><path d="M 15.0625 -10.734375 C 15.257812 -10.929688 15.363281 -10.691406 15.375 -10.015625 C 15.382812 -9.335938 14.769531 -8.394531 13.53125 -7.1875 C 12.300781 -5.976562 11.023438 -5.40625 9.703125 -5.46875 C 9.421875 -5.5 9.175781 -5.476562 8.96875 -5.40625 C 8.769531 -5.332031 8.597656 -5.164062 8.453125 -4.90625 C 8.304688 -4.664062 8.132812 -4.445312 7.9375 -4.25 C 7.9375 -4.25 7.925781 -4.238281 7.90625 -4.21875 C 7.09375 -3.351562 6.140625 -2.78125 5.046875 -2.5 C 3.953125 -2.226562 2.914062 -2.316406 1.9375 -2.765625 C 0.957031 -3.210938 0.253906 -4.054688 -0.171875 -5.296875 C -0.484375 -6.421875 -0.507812 -7.539062 -0.25 -8.65625 C -0.03125 -9.632812 0.328125 -10.554688 0.828125 -11.421875 C 1.421875 -12.566406 2.195312 -13.378906 3.15625 -13.859375 C 4.125 -14.335938 5.21875 -14.601562 6.4375 -14.65625 C 8.238281 -14.75 9.375 -13.898438 9.84375 -12.109375 C 10.132812 -11.066406 10.207031 -10.019531 10.0625 -8.96875 C 10.019531 -8.726562 9.972656 -8.476562 9.921875 -8.21875 C 9.867188 -8.050781 9.820312 -7.878906 9.78125 -7.703125 C 9.726562 -7.128906 9.976562 -6.867188 10.53125 -6.921875 C 12.050781 -7.179688 13.5625 -8.453125 15.0625 -10.734375 Z M 4.390625 -4.046875 C 5.316406 -4.472656 5.960938 -5.203125 6.328125 -6.234375 C 4.785156 -7.210938 3.753906 -8.625 3.234375 -10.46875 C 2.753906 -9.613281 2.460938 -8.609375 2.359375 -7.453125 C 2.253906 -6.304688 2.367188 -5.351562 2.703125 -4.59375 C 3.035156 -3.84375 3.597656 -3.660156 4.390625 -4.046875 Z M 7.046875 -8.28125 C 7.296875 -8.644531 7.441406 -9.09375 7.484375 -9.625 C 7.523438 -10.164062 7.492188 -10.703125 7.390625 -11.234375 C 7.296875 -11.765625 7.160156 -12.175781 6.984375 -12.46875 C 6.816406 -12.769531 6.632812 -12.863281 6.4375 -12.75 C 6.082031 -12.4375 5.882812 -11.984375 5.84375 -11.390625 C 5.800781 -10.804688 5.890625 -10.21875 6.109375 -9.625 C 6.328125 -9.039062 6.640625 -8.59375 7.046875 -8.28125 Z M 7.046875 -8.28125" transform="translate(213.65 199.784)"/></g></g></g><g fill="#F4F6FC"><g><g><path d="M 14.125 -9.9375 C 14.289062 -9.914062 14.265625 -9.535156 14.046875 -8.796875 C 13.835938 -8.066406 13.46875 -7.195312 12.9375 -6.1875 C 12.40625 -5.1875 11.765625 -4.257812 11.015625 -3.40625 C 10.265625 -2.5625 9.4375 -2 8.53125 -1.71875 C 7.625 -1.445312 6.679688 -1.671875 5.703125 -2.390625 C 4.960938 -3.054688 4.316406 -3.8125 3.765625 -4.65625 C 3.648438 -4.769531 3.566406 -4.878906 3.515625 -4.984375 C 3.328125 -5.304688 3.15625 -5.503906 3 -5.578125 C 2.84375 -5.648438 2.59375 -5.523438 2.25 -5.203125 C 2.1875 -5.148438 2.117188 -5.097656 2.046875 -5.046875 C 1.492188 -4.546875 0.941406 -4.039062 0.390625 -3.53125 C -0.160156 -3.007812 -0.796875 -2.757812 -1.515625 -2.78125 C -1.648438 -2.78125 -1.796875 -2.800781 -1.953125 -2.84375 C -2.117188 -2.894531 -2.238281 -2.976562 -2.3125 -3.09375 C -2.40625 -3.195312 -2.4375 -3.332031 -2.40625 -3.5 C -2.382812 -3.664062 -2.316406 -3.800781 -2.203125 -3.90625 C -1.765625 -4.375 -1.332031 -4.820312 -0.90625 -5.25 C -0.757812 -5.394531 -0.628906 -5.539062 -0.515625 -5.6875 C -0.316406 -5.851562 -0.125 -6.035156 0.0625 -6.234375 C 0.632812 -6.835938 1.023438 -7.304688 1.234375 -7.640625 C 1.453125 -7.972656 1.53125 -8.332031 1.46875 -8.71875 C 1.414062 -9.101562 1.257812 -9.675781 1 -10.4375 C 0.625 -11.519531 0.289062 -12.625 0 -13.75 C -0.164062 -14.582031 0.046875 -15.085938 0.640625 -15.265625 C 1.023438 -15.378906 1.375 -15.367188 1.6875 -15.234375 C 2 -15.109375 2.25 -14.890625 2.4375 -14.578125 C 2.601562 -14.191406 2.742188 -13.816406 2.859375 -13.453125 C 2.910156 -13.242188 2.984375 -13.039062 3.078125 -12.84375 C 3.078125 -12.78125 3.09375 -12.734375 3.125 -12.703125 C 3.257812 -12.304688 3.398438 -11.921875 3.546875 -11.546875 C 3.671875 -11.335938 3.816406 -11.226562 3.984375 -11.21875 C 4.148438 -11.207031 4.316406 -11.285156 4.484375 -11.453125 C 5.066406 -12.171875 5.628906 -12.910156 6.171875 -13.671875 C 6.609375 -14.328125 7.160156 -14.84375 7.828125 -15.21875 C 8.171875 -15.382812 8.539062 -15.46875 8.9375 -15.46875 C 9.28125 -15.46875 9.46875 -15.28125 9.5 -14.90625 C 9.5 -14.25 9.28125 -13.691406 8.84375 -13.234375 C 8.59375 -12.878906 8.335938 -12.535156 8.078125 -12.203125 C 7.335938 -11.171875 6.546875 -10.175781 5.703125 -9.21875 C 5.347656 -8.8125 5.171875 -8.4375 5.171875 -8.09375 C 5.171875 -7.75 5.304688 -7.359375 5.578125 -6.921875 C 6.210938 -5.835938 6.84375 -5.015625 7.46875 -4.453125 C 8.101562 -3.890625 8.765625 -3.722656 9.453125 -3.953125 C 10.148438 -4.179688 10.898438 -4.941406 11.703125 -6.234375 C 11.785156 -6.378906 11.910156 -6.609375 12.078125 -6.921875 C 12.285156 -7.328125 12.515625 -7.757812 12.765625 -8.21875 C 13.023438 -8.6875 13.28125 -9.082031 13.53125 -9.40625 C 13.78125 -9.738281 13.976562 -9.914062 14.125 -9.9375 Z M 14.125 -9.9375" transform="translate(227.254 199.784)"/></g></g></g><g fill="#FAB737"><g><g><path d="M 0.5625 -5.921875 C 0.5625 -6.671875 0.878906 -7.300781 1.515625 -7.8125 C 2.160156 -8.320312 3.023438 -8.578125 4.109375 -8.578125 C 5.203125 -8.578125 6.082031 -8.328125 6.75 -7.828125 C 7.414062 -7.328125 7.769531 -6.648438 7.8125 -5.796875 L 5.15625 -5.796875 C 5.125 -6.085938 5.019531 -6.285156 4.84375 -6.390625 C 4.675781 -6.492188 4.421875 -6.546875 4.078125 -6.546875 C 3.398438 -6.546875 3.0625 -6.335938 3.0625 -5.921875 C 3.0625 -5.546875 3.472656 -5.289062 4.296875 -5.15625 C 5.140625 -5.007812 5.90625 -4.789062 6.59375 -4.5 C 6.945312 -4.351562 7.242188 -4.113281 7.484375 -3.78125 C 7.722656 -3.457031 7.84375 -3.054688 7.84375 -2.578125 C 7.84375 -1.796875 7.503906 -1.148438 6.828125 -0.640625 C 6.148438 -0.140625 5.289062 0.109375 4.25 0.109375 C 3.21875 0.109375 2.359375 -0.125 1.671875 -0.59375 C 0.984375 -1.070312 0.609375 -1.769531 0.546875 -2.6875 L 3.203125 -2.6875 C 3.273438 -2.175781 3.640625 -1.921875 4.296875 -1.921875 C 4.609375 -1.921875 4.859375 -1.988281 5.046875 -2.125 C 5.242188 -2.269531 5.34375 -2.453125 5.34375 -2.671875 C 5.34375 -2.898438 5.175781 -3.078125 4.84375 -3.203125 C 4.519531 -3.335938 4.125 -3.445312 3.65625 -3.53125 C 3.195312 -3.625 2.726562 -3.738281 2.25 -3.875 C 1.78125 -4.019531 1.378906 -4.257812 1.046875 -4.59375 C 0.722656 -4.9375 0.5625 -5.378906 0.5625 -5.921875 Z M 0.5625 -5.921875" transform="translate(181.53 221.14)"/></g></g></g><g fill="#FAB737"><g><g><path d="M 3.734375 -11.25 L 3.734375 -7.234375 C 4.273438 -8.128906 5.132812 -8.578125 6.3125 -8.578125 C 7.28125 -8.578125 8.066406 -8.25 8.671875 -7.59375 C 9.273438 -6.945312 9.578125 -6.066406 9.578125 -4.953125 L 9.578125 0 L 7 0 L 7 -4.609375 C 7 -5.148438 6.851562 -5.570312 6.5625 -5.875 C 6.269531 -6.175781 5.867188 -6.328125 5.359375 -6.328125 C 4.859375 -6.328125 4.460938 -6.175781 4.171875 -5.875 C 3.878906 -5.570312 3.734375 -5.148438 3.734375 -4.609375 L 3.734375 0 L 1.140625 0 L 1.140625 -11.25 Z M 3.734375 -11.25" transform="translate(189.965 221.14)"/></g></g></g><g fill="#FAB737"><g><g><path d="M 6.234375 -2.65625 C 6.578125 -3.019531 6.75 -3.546875 6.75 -4.234375 C 6.75 -4.929688 6.570312 -5.457031 6.21875 -5.8125 C 5.863281 -6.175781 5.441406 -6.359375 4.953125 -6.359375 C 4.460938 -6.359375 4.039062 -6.175781 3.6875 -5.8125 C 3.34375 -5.457031 3.171875 -4.929688 3.171875 -4.234375 C 3.171875 -3.546875 3.347656 -3.019531 3.703125 -2.65625 C 4.066406 -2.289062 4.492188 -2.109375 4.984375 -2.109375 C 5.472656 -2.109375 5.890625 -2.289062 6.234375 -2.65625 Z M 1.8125 -1.09375 C 0.957031 -1.894531 0.53125 -2.945312 0.53125 -4.25 C 0.53125 -5.5625 0.957031 -6.609375 1.8125 -7.390625 C 2.664062 -8.179688 3.71875 -8.578125 4.96875 -8.578125 C 6.226562 -8.578125 7.28125 -8.179688 8.125 -7.390625 C 8.96875 -6.609375 9.390625 -5.5625 9.390625 -4.25 C 9.390625 -2.945312 8.96875 -1.894531 8.125 -1.09375 C 7.289062 -0.289062 6.242188 0.109375 4.984375 0.109375 C 3.722656 0.109375 2.664062 -0.289062 1.8125 -1.09375 Z M 1.8125 -1.09375" transform="translate(200.604 221.14)"/></g></g></g><g fill="#FAB737"><g><g><path d="M 6.890625 -2.671875 C 7.265625 -3.035156 7.453125 -3.550781 7.453125 -4.21875 C 7.453125 -4.894531 7.265625 -5.414062 6.890625 -5.78125 C 6.515625 -6.144531 6.082031 -6.328125 5.59375 -6.328125 C 5.101562 -6.328125 4.671875 -6.144531 4.296875 -5.78125 C 3.921875 -5.425781 3.734375 -4.910156 3.734375 -4.234375 C 3.734375 -3.566406 3.921875 -3.050781 4.296875 -2.6875 C 4.671875 -2.320312 5.101562 -2.140625 5.59375 -2.140625 C 6.082031 -2.140625 6.515625 -2.316406 6.890625 -2.671875 Z M 3.734375 -7.375 C 4.316406 -8.175781 5.144531 -8.578125 6.21875 -8.578125 C 7.300781 -8.578125 8.21875 -8.164062 8.96875 -7.34375 C 9.71875 -6.53125 10.09375 -5.488281 10.09375 -4.21875 C 10.09375 -2.957031 9.71875 -1.921875 8.96875 -1.109375 C 8.21875 -0.296875 7.3125 0.109375 6.25 0.109375 C 5.1875 0.109375 4.347656 -0.335938 3.734375 -1.234375 L 3.734375 4.046875 L 1.140625 4.046875 L 1.140625 -8.484375 L 3.734375 -8.484375 Z M 3.734375 -7.375" transform="translate(210.53 221.14)"/></g></g></g></svg>