<svg xmlns="http://www.w3.org/2000/svg" width="375" viewBox="0 0 375 375" height="375" version="1.0"><defs><clipPath id="a"><path d="M 174.949219 132 L 309.949219 132 L 309.949219 238 L 174.949219 238 Z M 174.949219 132"/></clipPath></defs><g clip-path="url(#a)"><path fill="#FFF" d="M 239.703125 222.144531 Z M 212.25 237.644531 L 217.929688 218.175781 L 221.90625 212.886719 L 223.421875 213.640625 L 221.527344 219.878906 L 222.664062 220.445312 L 227.207031 215.53125 L 228.53125 216.289062 L 226.070312 223.089844 L 212.25 237.457031 Z M 231.5625 225.925781 L 239.515625 222.144531 C 242.164062 223.660156 245.382812 224.601562 248.601562 224.601562 C 253.148438 224.601562 257.3125 222.902344 260.53125 220.257812 C 265.832031 224.792969 272.648438 227.628906 280.03125 227.628906 C 296.316406 227.628906 309.570312 214.398438 309.570312 198.144531 C 309.570312 182.078125 296.695312 169.039062 280.789062 168.660156 C 281.167969 166.582031 281.546875 164.503906 281.546875 162.425781 C 281.546875 146.171875 268.292969 132.941406 252.011719 132.941406 C 238 132.941406 226.261719 142.578125 223.230469 155.621094 C 220.011719 152.785156 215.65625 150.894531 210.921875 150.894531 C 200.699219 150.894531 192.367188 159.210938 192.367188 169.417969 C 192.367188 170.363281 192.367188 171.117188 192.558594 172.0625 C 182.144531 175.085938 174.570312 184.535156 174.570312 195.875 C 174.570312 209.484375 185.742188 220.632812 199.375 220.632812 L 214.898438 220.632812 L 212.058594 237.644531 L 227.773438 224.414062 L 229.101562 220.632812 L 229.480469 220.632812 Z M 225.3125 192.097656 C 230.804688 179.246094 238 167.90625 253.902344 164.691406 C 258.449219 179.433594 253.714844 191.90625 244.058594 203.246094 C 245.382812 205.894531 246.519531 208.726562 246.140625 211.375 C 245.574219 214.964844 242.921875 216.664062 240.269531 218.933594 L 237.808594 221.011719 L 231.5625 226.117188 L 231.5625 213.640625 L 228.53125 215.53125 L 222.851562 212.128906 L 222.851562 208.351562 L 211.679688 214.964844 L 213.761719 201.734375 C 214.332031 198.144531 214.519531 196.253906 217.929688 194.175781 C 220.390625 192.664062 223.042969 192.472656 225.691406 192.285156 Z M 225.3125 192.097656" fill-rule="evenodd"/></g><path fill="#FFF" d="M 252.390625 167.90625 L 250.304688 171.304688 C 252.769531 179.621094 249.929688 189.261719 243.488281 199.84375 C 251.253906 190.207031 255.230469 180 252.199219 167.714844 Z M 252.390625 167.90625" fill-rule="evenodd"/><g fill="#FFF"><g><g><path d="M 9.953125 -10.703125 C 13.542969 -10.226562 14.261719 -9.300781 14.261719 -7.761719 L 14.261719 -7.625 C 14.261719 -6.328125 13.339844 -5.128906 11.113281 -5.128906 L 10.773438 -5.128906 C 8.550781 -5.128906 7.523438 -6.292969 7.523438 -9.234375 L 1.027344 -9.234375 L 1.027344 -8.925781 C 1.027344 -2.222656 4.445312 0.480469 10.945312 0.480469 C 17.476562 0.480469 20.863281 -2.566406 20.863281 -7.796875 L 20.863281 -8.171875 C 20.863281 -13.40625 17.75 -15.253906 11.9375 -16.039062 C 8.34375 -16.519531 7.796875 -17.339844 7.796875 -18.980469 L 7.796875 -19.117188 C 7.796875 -20.484375 8.722656 -21.546875 10.601562 -21.546875 L 10.945312 -21.546875 C 13.339844 -21.546875 14.191406 -20.109375 14.191406 -17.101562 L 20.691406 -17.101562 L 20.691406 -17.816406 C 20.691406 -24.28125 17.679688 -27.15625 10.945312 -27.15625 C 4.515625 -27.15625 1.195312 -23.90625 1.195312 -18.945312 L 1.195312 -18.570312 C 1.195312 -13.339844 4.136719 -11.492188 9.953125 -10.703125 Z M 9.953125 -10.703125" transform="translate(68.59 194.025)"/></g></g></g><g fill="#FFF"><g><g><path d="M 12.3125 0 L 17.988281 0 L 17.648438 -5.128906 L 17.648438 -11.628906 C 17.648438 -16.109375 15.765625 -18.605469 9.574219 -18.605469 C 3.421875 -18.605469 1.539062 -15.730469 1.539062 -12.449219 L 1.539062 -12.140625 L 7.457031 -12.140625 C 7.457031 -12.996094 7.867188 -13.886719 9.40625 -13.886719 C 10.773438 -13.886719 11.285156 -13.269531 11.355469 -11.96875 L 7.523438 -11.355469 C 3.488281 -10.738281 0.855469 -9.40625 0.855469 -5.472656 L 0.855469 -5.128906 C 0.855469 -2.222656 2.222656 0.480469 6.496094 0.480469 C 8.890625 0.480469 10.703125 -0.375 11.96875 -1.710938 Z M 8.890625 -4.582031 C 7.59375 -4.582031 7.113281 -5.335938 7.113281 -6.054688 L 7.113281 -6.257812 C 7.113281 -7.078125 7.421875 -7.730469 8.890625 -7.96875 L 11.355469 -8.34375 L 11.355469 -5.574219 C 10.839844 -5.097656 9.953125 -4.582031 8.890625 -4.582031 Z M 8.890625 -4.582031" transform="translate(90.475 194.025)"/></g></g></g><g fill="#FFF"><g><g><path d="M 18.84375 0 L 18.84375 -12.140625 C 18.84375 -15.390625 17.476562 -18.605469 13.203125 -18.605469 C 10.5 -18.605469 8.652344 -17.476562 7.457031 -15.867188 L 7.046875 -18.125 L 1.367188 -18.125 L 1.710938 -12.996094 L 1.710938 0 L 8.003906 0 L 8.003906 -11.800781 C 8.34375 -12.3125 9.269531 -13.203125 10.636719 -13.203125 C 12.347656 -13.203125 12.550781 -11.96875 12.550781 -11.113281 L 12.550781 0 Z M 18.84375 0" transform="translate(109.624 194.025)"/></g></g></g><g fill="#FFF"><g><g><path d="M 7.832031 -18.605469 C 2.871094 -18.605469 1.164062 -15.046875 1.164062 -9.746094 L 1.164062 -8.378906 C 1.164062 -3.078125 2.871094 0.480469 7.832031 0.480469 C 10.292969 0.480469 11.867188 -0.582031 12.894531 -2.085938 L 13.304688 0 L 18.980469 0 L 18.640625 -5.128906 L 18.640625 -27.359375 L 12.347656 -27.359375 L 12.347656 -16.757812 C 11.320312 -17.851562 9.847656 -18.605469 7.832031 -18.605469 Z M 12.347656 -6.328125 C 12.003906 -5.8125 11.082031 -4.925781 9.710938 -4.925781 C 8.003906 -4.925781 7.421875 -6.15625 7.421875 -8.378906 L 7.421875 -9.746094 C 7.421875 -11.96875 8.003906 -13.203125 9.710938 -13.203125 C 11.082031 -13.203125 12.003906 -12.3125 12.347656 -11.800781 Z M 12.347656 -6.328125" transform="translate(129.97 194.025)"/></g></g></g><g fill="#FAB737"><g><g><path d="M 1.710938 -26.675781 L 1.710938 0 L 11.285156 0 C 15.527344 0 20.519531 -0.921875 20.519531 -7.867188 L 20.519531 -8.550781 C 20.519531 -11.25 19.324219 -12.859375 17.613281 -13.78125 C 18.945312 -14.707031 19.835938 -16.140625 19.835938 -18.398438 L 19.835938 -19.082031 C 19.835938 -25.785156 15.183594 -26.675781 11.113281 -26.675781 Z M 11.457031 -10.808594 C 12.515625 -10.808594 13.953125 -10.429688 13.953125 -8.34375 L 13.953125 -8.070312 C 13.953125 -5.984375 12.515625 -5.609375 11.457031 -5.609375 L 8.207031 -5.609375 L 8.207031 -10.808594 Z M 11.011719 -21.066406 C 11.96875 -21.066406 13.269531 -20.792969 13.269531 -18.945312 L 13.269531 -18.535156 C 13.269531 -16.691406 11.96875 -16.414062 11.011719 -16.414062 L 8.207031 -16.414062 L 8.207031 -21.066406 Z M 11.011719 -21.066406" transform="translate(150.316 194.025)"/></g></g></g><g fill="#FAB737"><g><g><path d="M 9.574219 0.480469 C 15.5625 0.480469 18.296875 -3.078125 18.296875 -8.378906 L 18.296875 -9.746094 C 18.296875 -15.046875 15.5625 -18.605469 9.574219 -18.605469 C 3.589844 -18.605469 0.855469 -15.046875 0.855469 -9.746094 L 0.855469 -8.378906 C 0.855469 -3.078125 3.589844 0.480469 9.574219 0.480469 Z M 9.574219 -4.925781 C 7.867188 -4.925781 7.113281 -6.15625 7.113281 -8.378906 L 7.113281 -9.746094 C 7.113281 -11.96875 7.867188 -13.203125 9.574219 -13.203125 C 11.285156 -13.203125 12.039062 -11.96875 12.039062 -9.746094 L 12.039062 -8.378906 C 12.039062 -6.15625 11.285156 -4.925781 9.574219 -4.925781 Z M 9.574219 -4.925781" transform="translate(172.372 194.025)"/></g></g></g><g fill="#FAB737"><g><g><path d="M 0.511719 -18.125 L 4.890625 -9.40625 L 0.511719 0 L 7.558594 0 L 9.917969 -5.882812 L 12.277344 0 L 19.324219 0 L 14.910156 -9.40625 L 19.324219 -18.125 L 12.074219 -18.125 L 9.917969 -12.378906 L 7.761719 -18.125 Z M 0.511719 -18.125" transform="translate(191.522 194.025)"/></g></g></g><g fill="#D9D9D9"><g><g><path d="M 8.59375 -4.578125 C 8.59375 -3.097656 8.171875 -1.960938 7.328125 -1.171875 C 6.484375 -0.390625 5.265625 0 3.671875 0 L 1.125 0 L 1.125 -8.984375 L 3.953125 -8.984375 C 5.421875 -8.984375 6.5625 -8.597656 7.375 -7.828125 C 8.1875 -7.054688 8.59375 -5.972656 8.59375 -4.578125 Z M 6.609375 -4.53125 C 6.609375 -6.457031 5.753906 -7.421875 4.046875 -7.421875 L 3.03125 -7.421875 L 3.03125 -1.578125 L 3.859375 -1.578125 C 5.691406 -1.578125 6.609375 -2.5625 6.609375 -4.53125 Z M 6.609375 -4.53125" transform="translate(66.768 210.48)"/></g></g></g><g fill="#D9D9D9"><g><g><path d="M 6.3125 0 L 1.125 0 L 1.125 -8.984375 L 6.3125 -8.984375 L 6.3125 -7.421875 L 3.03125 -7.421875 L 3.03125 -5.453125 L 6.078125 -5.453125 L 6.078125 -3.890625 L 3.03125 -3.890625 L 3.03125 -1.578125 L 6.3125 -1.578125 Z M 6.3125 0" transform="translate(79.218 210.48)"/></g></g></g><g fill="#D9D9D9"><g><g><path d="M 6.265625 -8.984375 L 8.1875 -8.984375 L 5.125 0 L 3.046875 0 L 0 -8.984375 L 1.921875 -8.984375 L 3.609375 -3.640625 C 3.703125 -3.328125 3.800781 -2.957031 3.90625 -2.53125 C 4.007812 -2.113281 4.070312 -1.820312 4.09375 -1.65625 C 4.132812 -2.03125 4.289062 -2.691406 4.5625 -3.640625 Z M 6.265625 -8.984375" transform="translate(89.398 210.48)"/></g></g></g><g fill="#D9D9D9"><g><g><path d="M 6.3125 0 L 1.125 0 L 1.125 -8.984375 L 6.3125 -8.984375 L 6.3125 -7.421875 L 3.03125 -7.421875 L 3.03125 -5.453125 L 6.078125 -5.453125 L 6.078125 -3.890625 L 3.03125 -3.890625 L 3.03125 -1.578125 L 6.3125 -1.578125 Z M 6.3125 0" transform="translate(100.71 210.48)"/></g></g></g><g fill="#D9D9D9"><g><g><path d="M 1.125 0 L 1.125 -8.984375 L 3.03125 -8.984375 L 3.03125 -1.578125 L 6.6875 -1.578125 L 6.6875 0 Z M 1.125 0" transform="translate(110.89 210.48)"/></g></g></g><g fill="#D9D9D9"><g><g><path d="M 9.296875 -4.5 C 9.296875 -3.019531 8.925781 -1.878906 8.1875 -1.078125 C 7.445312 -0.273438 6.390625 0.125 5.015625 0.125 C 3.640625 0.125 2.582031 -0.273438 1.84375 -1.078125 C 1.101562 -1.878906 0.734375 -3.023438 0.734375 -4.515625 C 0.734375 -6.015625 1.101562 -7.15625 1.84375 -7.9375 C 2.582031 -8.726562 3.644531 -9.125 5.03125 -9.125 C 6.40625 -9.125 7.457031 -8.726562 8.1875 -7.9375 C 8.925781 -7.144531 9.296875 -6 9.296875 -4.5 Z M 2.734375 -4.5 C 2.734375 -3.5 2.921875 -2.742188 3.296875 -2.234375 C 3.679688 -1.722656 4.253906 -1.46875 5.015625 -1.46875 C 6.535156 -1.46875 7.296875 -2.476562 7.296875 -4.5 C 7.296875 -6.53125 6.539062 -7.546875 5.03125 -7.546875 C 4.269531 -7.546875 3.695312 -7.289062 3.3125 -6.78125 C 2.925781 -6.269531 2.734375 -5.507812 2.734375 -4.5 Z M 2.734375 -4.5" transform="translate(121.133 210.48)"/></g></g></g><g fill="#D9D9D9"><g><g><path d="M 3.03125 -4.765625 L 3.671875 -4.765625 C 4.253906 -4.765625 4.691406 -4.878906 4.984375 -5.109375 C 5.273438 -5.335938 5.421875 -5.675781 5.421875 -6.125 C 5.421875 -6.5625 5.296875 -6.882812 5.046875 -7.09375 C 4.804688 -7.3125 4.425781 -7.421875 3.90625 -7.421875 L 3.03125 -7.421875 Z M 7.34375 -6.1875 C 7.34375 -5.21875 7.039062 -4.476562 6.4375 -3.96875 C 5.832031 -3.457031 4.972656 -3.203125 3.859375 -3.203125 L 3.03125 -3.203125 L 3.03125 0 L 1.125 0 L 1.125 -8.984375 L 4 -8.984375 C 5.09375 -8.984375 5.921875 -8.75 6.484375 -8.28125 C 7.054688 -7.8125 7.34375 -7.113281 7.34375 -6.1875 Z M 7.34375 -6.1875" transform="translate(134.284 210.48)"/></g></g></g><g fill="#D9D9D9"><g><g><path d="M 6.3125 0 L 1.125 0 L 1.125 -8.984375 L 6.3125 -8.984375 L 6.3125 -7.421875 L 3.03125 -7.421875 L 3.03125 -5.453125 L 6.078125 -5.453125 L 6.078125 -3.890625 L 3.03125 -3.890625 L 3.03125 -1.578125 L 6.3125 -1.578125 Z M 6.3125 0" transform="translate(145.32 210.48)"/></g></g></g><g fill="#D9D9D9"><g><g><path d="M 3.03125 -5 L 3.65625 -5 C 4.257812 -5 4.703125 -5.097656 4.984375 -5.296875 C 5.273438 -5.503906 5.421875 -5.820312 5.421875 -6.25 C 5.421875 -6.675781 5.269531 -6.976562 4.96875 -7.15625 C 4.675781 -7.332031 4.222656 -7.421875 3.609375 -7.421875 L 3.03125 -7.421875 Z M 3.03125 -3.453125 L 3.03125 0 L 1.125 0 L 1.125 -8.984375 L 3.75 -8.984375 C 4.96875 -8.984375 5.867188 -8.757812 6.453125 -8.3125 C 7.046875 -7.875 7.34375 -7.203125 7.34375 -6.296875 C 7.34375 -5.765625 7.195312 -5.289062 6.90625 -4.875 C 6.613281 -4.46875 6.203125 -4.148438 5.671875 -3.921875 C 7.023438 -1.898438 7.90625 -0.59375 8.3125 0 L 6.203125 0 L 4.046875 -3.453125 Z M 3.03125 -3.453125" transform="translate(155.5 210.48)"/></g></g></g></svg>