<svg xmlns="http://www.w3.org/2000/svg" width="375" viewBox="0 0 375 375" height="375" version="1.0"><g fill="#FFF"><g><g><path d="M 1.59375 -2.097656 L 1.59375 -1.046875 C 1.59375 -1.046875 4.375 1.183594 9.292969 1.183594 C 14.214844 1.183594 18.910156 -2.234375 18.910156 -7.289062 C 18.910156 -17.496094 4.28125 -14.488281 4.28125 -22.78125 C 4.28125 -26.015625 6.515625 -28.660156 10.433594 -28.660156 C 14.304688 -28.660156 16.8125 -26.789062 16.8125 -26.789062 L 16.765625 -27.746094 C 16.765625 -27.746094 14.035156 -29.433594 10.386719 -29.433594 C 6.789062 -29.433594 1.730469 -27.246094 1.730469 -21.550781 C 1.730469 -11.34375 16.3125 -15.171875 16.3125 -6.152344 C 16.3125 -1.730469 12.941406 0.457031 9.292969 0.457031 C 5.375 0.457031 3.1875 -0.867188 1.59375 -2.097656 Z M 1.59375 -2.097656" transform="translate(69.35 197.85)"/></g></g></g><g fill="#FFF"><g><g><path d="M 23.828125 0.046875 L 27.335938 0.046875 L 14.808594 -29.113281 L 14.578125 -29.113281 L 1.59375 0.046875 L 2.597656 0.046875 L 7.746094 -11.4375 L 18.863281 -11.4375 Z M 8.066406 -12.210938 L 13.394531 -24.195312 L 18.542969 -12.210938 Z M 8.066406 -12.210938" transform="translate(98.238 197.85)"/></g></g></g><g fill="#FFF"><g><g><path d="M 25.425781 -28.566406 L 24.695312 -28.566406 L 24.695312 -4.328125 L 2.277344 -29.113281 L 2.1875 -29.113281 L 2.1875 0.046875 L 2.914062 0.046875 L 2.914062 -23.921875 L 25.289062 0.867188 L 25.425781 0.867188 Z M 25.425781 -28.566406" transform="translate(135.372 197.85)"/></g></g></g><g fill="#FFF"><g><g><path d="M 13.988281 -28.566406 L 2.1875 -28.566406 L 2.1875 0.046875 L 11.847656 0.046875 C 13.214844 0.046875 28.476562 0.730469 28.476562 -14.714844 C 28.476562 -27.199219 19.273438 -28.566406 13.988281 -28.566406 Z M 11.753906 -0.683594 L 5.421875 -0.683594 L 5.421875 -27.792969 L 12.257812 -27.792969 C 17.449219 -27.792969 25.105469 -25.878906 25.105469 -14.714844 C 25.105469 -3.597656 17.996094 -0.683594 11.753906 -0.683594 Z M 11.753906 -0.683594" transform="translate(171.367 197.85)"/></g></g></g><g fill="#FFF"><g><g><path d="M 13.304688 -15.21875 C 16.449219 -16.039062 20 -17.953125 20 -22.460938 C 20 -28.25 12.894531 -28.566406 10.84375 -28.566406 L 2.1875 -28.566406 L 2.1875 0.046875 L 10.023438 0.046875 C 11.253906 0.046875 21.003906 -0.136719 21.003906 -7.882812 C 21.003906 -12.847656 17.222656 -14.714844 13.304688 -15.21875 Z M 9.113281 -27.839844 C 13.488281 -27.839844 16.539062 -26.425781 16.539062 -21.960938 C 16.539062 -17.496094 13.257812 -15.355469 7.929688 -15.355469 L 5.421875 -15.355469 L 5.421875 -27.839844 Z M 7.929688 -0.683594 L 5.421875 -0.683594 L 5.421875 -14.625 L 9.113281 -14.625 C 16.039062 -14.625 17.542969 -11.027344 17.542969 -7.382812 C 17.542969 -2.003906 13.167969 -0.683594 7.929688 -0.683594 Z M 7.929688 -0.683594" transform="translate(210.096 197.85)"/></g></g></g><g fill="#FFF"><g><g><path d="M 17.496094 -29.113281 C 9.292969 -29.113281 1.824219 -24.742188 1.824219 -14.171875 C 1.824219 -2.003906 11.753906 0.867188 17.496094 0.867188 C 23.191406 0.867188 33.167969 -2.003906 33.167969 -14.171875 C 33.167969 -24.742188 25.652344 -29.113281 17.496094 -29.113281 Z M 17.496094 0.0898438 C 12.347656 0.0898438 5.148438 -2.1875 5.148438 -14.171875 C 5.148438 -25.96875 13.078125 -28.386719 17.496094 -28.386719 C 21.914062 -28.386719 29.84375 -25.96875 29.84375 -14.171875 C 29.84375 -2.1875 22.597656 0.0898438 17.496094 0.0898438 Z M 17.496094 0.0898438" transform="translate(241.08 197.85)"/></g></g></g><g fill="#FFF"><g><g><path d="M 22.007812 0.046875 L 12.894531 -15.492188 L 20.730469 -28.566406 L 19.867188 -28.566406 L 12.484375 -16.21875 L 5.238281 -28.566406 L 1.457031 -28.566406 L 10.523438 -13.03125 L 2.6875 0.046875 L 3.597656 0.046875 L 10.980469 -12.257812 L 18.226562 0.046875 Z M 22.007812 0.046875" transform="translate(284.501 197.85)"/></g></g></g><path transform="matrix(2.24768 0 0 2.25 62.495 144.08)" fill="none" d="M 0.000681126 0.000824138 L 111.11528 0.000824138" stroke="#FFF"/><path transform="matrix(2.24782 0 0 2.25 62.495 226.101)" fill="none" d="M 0.000681085 0.0000453988 L 69.738538 0.0000453988" stroke="#FFF"/><path transform="matrix(0 -2.2428 2.25 0 62.494 227.226)" fill="none" d="M -0.00043723 -0.000668487 L 37.454432 -0.000668487" stroke="#FFF"/><path transform="matrix(0 -2.2426 2.25 0 311.38 224.976)" fill="none" d="M -0.000437203 -0.000292712 L 36.454434 -0.000292712" stroke="#FFF"/><g fill="#FFF"><g><g><path d="M 8.171875 -7.34375 C 8.171875 -7.132812 7.734375 -6.769531 6.859375 -6.25 C 5.992188 -5.726562 5.351562 -5.332031 4.9375 -5.0625 C 4.519531 -4.800781 4.3125 -4.640625 4.3125 -4.578125 C 4.394531 -4.398438 4.476562 -4.097656 4.5625 -3.671875 C 4.65625 -3.253906 4.691406 -2.796875 4.671875 -2.296875 C 4.648438 -1.804688 4.488281 -1.367188 4.1875 -0.984375 C 3.894531 -0.597656 3.40625 -0.363281 2.71875 -0.28125 C 2.03125 -0.226562 1.410156 -0.332031 0.859375 -0.59375 C 0.316406 -0.863281 -0.0195312 -1.25 -0.15625 -1.75 C -0.289062 -2.25 -0.125 -2.835938 0.34375 -3.515625 C 0.664062 -3.890625 1.046875 -4.21875 1.484375 -4.5 C 1.628906 -4.59375 1.785156 -4.695312 1.953125 -4.8125 C 1.421875 -5.382812 0.914062 -5.972656 0.4375 -6.578125 C -0.03125 -7.179688 -0.332031 -7.722656 -0.46875 -8.203125 C -0.613281 -8.742188 -0.519531 -9.253906 -0.1875 -9.734375 C 0.132812 -10.222656 0.695312 -10.507812 1.5 -10.59375 C 1.894531 -10.625 2.265625 -10.601562 2.609375 -10.53125 C 2.960938 -10.457031 3.285156 -10.289062 3.578125 -10.03125 C 3.640625 -9.96875 3.679688 -9.894531 3.703125 -9.8125 C 3.734375 -9.738281 3.722656 -9.644531 3.671875 -9.53125 C 3.578125 -9.351562 3.429688 -9.265625 3.234375 -9.265625 C 3.085938 -9.265625 2.945312 -9.28125 2.8125 -9.3125 C 2.664062 -9.375 2.535156 -9.429688 2.421875 -9.484375 C 2.335938 -9.535156 2.257812 -9.578125 2.1875 -9.609375 C 1.925781 -9.703125 1.726562 -9.6875 1.59375 -9.5625 C 1.457031 -9.4375 1.390625 -9.242188 1.390625 -8.984375 C 1.398438 -8.523438 1.582031 -8.035156 1.9375 -7.515625 C 2.300781 -7.003906 2.660156 -6.523438 3.015625 -6.078125 C 3.160156 -5.929688 3.28125 -5.785156 3.375 -5.640625 C 3.476562 -5.535156 3.738281 -5.546875 4.15625 -5.671875 C 4.582031 -5.804688 5.359375 -6.171875 6.484375 -6.765625 C 7.609375 -7.359375 8.171875 -7.550781 8.171875 -7.34375 Z M 2.15625 -1.296875 C 2.414062 -1.304688 2.582031 -1.445312 2.65625 -1.71875 C 2.738281 -1.988281 2.769531 -2.285156 2.75 -2.609375 C 2.726562 -2.929688 2.707031 -3.175781 2.6875 -3.34375 C 2.65625 -3.4375 2.59375 -3.492188 2.5 -3.515625 C 2.414062 -3.546875 2.332031 -3.546875 2.25 -3.515625 C 1.945312 -3.273438 1.726562 -2.976562 1.59375 -2.625 C 1.457031 -2.269531 1.46875 -1.957031 1.625 -1.6875 C 1.675781 -1.582031 1.75 -1.492188 1.84375 -1.421875 C 1.9375 -1.347656 2.039062 -1.304688 2.15625 -1.296875 Z M 2.15625 -1.296875" transform="translate(229.392 241.851)"/></g></g><g><g><path d="M 10.34375 -7.359375 C 10.46875 -7.492188 10.535156 -7.328125 10.546875 -6.859375 C 10.554688 -6.398438 10.132812 -5.753906 9.28125 -4.921875 C 8.4375 -4.097656 7.5625 -3.707031 6.65625 -3.75 C 6.457031 -3.769531 6.289062 -3.753906 6.15625 -3.703125 C 6.019531 -3.660156 5.898438 -3.546875 5.796875 -3.359375 C 5.703125 -3.203125 5.585938 -3.054688 5.453125 -2.921875 C 5.453125 -2.921875 5.441406 -2.910156 5.421875 -2.890625 C 4.867188 -2.296875 4.21875 -1.90625 3.46875 -1.71875 C 2.71875 -1.53125 2.003906 -1.585938 1.328125 -1.890625 C 0.660156 -2.203125 0.175781 -2.785156 -0.125 -3.640625 C -0.332031 -4.410156 -0.347656 -5.175781 -0.171875 -5.9375 C -0.0234375 -6.601562 0.21875 -7.234375 0.5625 -7.828125 C 0.976562 -8.617188 1.515625 -9.175781 2.171875 -9.5 C 2.828125 -9.832031 3.578125 -10.015625 4.421875 -10.046875 C 5.648438 -10.109375 6.425781 -9.523438 6.75 -8.296875 C 6.945312 -7.585938 7 -6.875 6.90625 -6.15625 C 6.875 -5.988281 6.84375 -5.816406 6.8125 -5.640625 C 6.769531 -5.523438 6.738281 -5.410156 6.71875 -5.296875 C 6.675781 -4.898438 6.847656 -4.71875 7.234375 -4.75 C 8.265625 -4.925781 9.300781 -5.796875 10.34375 -7.359375 Z M 3.015625 -2.765625 C 3.648438 -3.066406 4.09375 -3.570312 4.34375 -4.28125 C 3.289062 -4.957031 2.582031 -5.925781 2.21875 -7.1875 C 1.882812 -6.59375 1.679688 -5.898438 1.609375 -5.109375 C 1.535156 -4.328125 1.613281 -3.675781 1.84375 -3.15625 C 2.070312 -2.632812 2.460938 -2.503906 3.015625 -2.765625 Z M 4.828125 -5.671875 C 5.003906 -5.929688 5.109375 -6.242188 5.140625 -6.609375 C 5.171875 -6.972656 5.148438 -7.335938 5.078125 -7.703125 C 5.015625 -8.066406 4.921875 -8.351562 4.796875 -8.5625 C 4.671875 -8.769531 4.546875 -8.832031 4.421875 -8.75 C 4.171875 -8.53125 4.03125 -8.21875 4 -7.8125 C 3.976562 -7.414062 4.039062 -7.015625 4.1875 -6.609375 C 4.34375 -6.203125 4.554688 -5.890625 4.828125 -5.671875 Z M 4.828125 -5.671875" transform="translate(236.646 241.851)"/></g></g><g><g><path d="M 9.71875 -6.265625 C 9.875 -6.640625 10.039062 -6.828125 10.21875 -6.828125 C 10.394531 -6.828125 10.453125 -6.640625 10.390625 -6.265625 C 10.097656 -5.359375 9.742188 -4.484375 9.328125 -3.640625 C 8.910156 -2.796875 8.347656 -2.046875 7.640625 -1.390625 C 7.109375 -0.847656 6.46875 -0.5 5.71875 -0.34375 C 4.707031 -0.207031 3.867188 -0.332031 3.203125 -0.71875 C 2.546875 -1.101562 2.023438 -1.65625 1.640625 -2.375 C 1.253906 -3.09375 0.96875 -3.878906 0.78125 -4.734375 C 0.59375 -5.597656 0.472656 -6.429688 0.421875 -7.234375 C 0.273438 -8.765625 0.164062 -10.769531 0.09375 -13.25 C 0.03125 -15.738281 0.0546875 -18.367188 0.171875 -21.140625 C 0.285156 -23.910156 0.554688 -26.476562 0.984375 -28.84375 C 1.410156 -31.21875 2.035156 -33.054688 2.859375 -34.359375 C 3.335938 -34.992188 3.894531 -35.316406 4.53125 -35.328125 C 5.164062 -35.335938 5.726562 -35.046875 6.21875 -34.453125 C 6.550781 -33.992188 6.800781 -33.507812 6.96875 -33 C 7.144531 -32.488281 7.257812 -31.96875 7.3125 -31.4375 C 7.488281 -29.613281 7.460938 -27.691406 7.234375 -25.671875 C 7.015625 -23.648438 6.660156 -21.488281 6.171875 -19.1875 C 5.691406 -16.894531 5.113281 -14.875 4.4375 -13.125 C 3.769531 -11.375 3.210938 -9.988281 2.765625 -8.96875 C 2.515625 -8.550781 2.421875 -7.925781 2.484375 -7.09375 C 2.566406 -6.1875 2.738281 -5.238281 3 -4.25 C 3.269531 -3.257812 3.644531 -2.476562 4.125 -1.90625 C 4.570312 -1.4375 5.070312 -1.289062 5.625 -1.46875 C 6.175781 -1.644531 6.726562 -2.019531 7.28125 -2.59375 C 7.832031 -3.164062 8.316406 -3.789062 8.734375 -4.46875 C 9.160156 -5.144531 9.488281 -5.742188 9.71875 -6.265625 Z M 2.546875 -20.046875 C 2.492188 -19.453125 2.441406 -18.554688 2.390625 -17.359375 C 2.335938 -16.160156 2.289062 -14.941406 2.25 -13.703125 C 2.207031 -12.316406 2.164062 -11.238281 2.125 -10.46875 C 2.5625 -11.457031 3.070312 -12.894531 3.65625 -14.78125 C 4.238281 -16.664062 4.769531 -18.882812 5.25 -21.4375 C 5.726562 -24 6.039062 -26.769531 6.1875 -29.75 C 6.101562 -31.488281 5.894531 -32.664062 5.5625 -33.28125 C 5.226562 -33.894531 4.863281 -33.945312 4.46875 -33.4375 C 4.070312 -32.925781 3.757812 -31.851562 3.53125 -30.21875 C 3.164062 -27.5 2.882812 -24.773438 2.6875 -22.046875 C 2.632812 -21.367188 2.585938 -20.703125 2.546875 -20.046875 Z M 2.546875 -20.046875" transform="translate(246.672 241.851)"/></g></g><g><g><path d="M 9.875 -6.46875 C 10.375 -6.945312 10.585938 -7.066406 10.515625 -6.828125 C 10.453125 -6.585938 10.179688 -6.15625 9.703125 -5.53125 C 9.222656 -4.914062 8.628906 -4.242188 7.921875 -3.515625 C 7.210938 -2.785156 6.460938 -2.15625 5.671875 -1.625 C 4.890625 -1.09375 4.144531 -0.800781 3.4375 -0.75 C 2.5625 -0.75 1.859375 -1.003906 1.328125 -1.515625 C 0.804688 -2.035156 0.429688 -2.71875 0.203125 -3.5625 C -0.015625 -4.414062 -0.101562 -5.335938 -0.0625 -6.328125 C -0.0195312 -7.429688 0.015625 -8.535156 0.046875 -9.640625 C 0.0664062 -10.191406 0.0859375 -10.734375 0.109375 -11.265625 C 0.148438 -12.148438 0.179688 -13.035156 0.203125 -13.921875 C 0.222656 -14.203125 0.175781 -14.4375 0.0625 -14.625 C -0.0390625 -14.8125 -0.234375 -14.914062 -0.515625 -14.9375 C -0.828125 -14.957031 -1.222656 -14.96875 -1.703125 -14.96875 C -2.109375 -14.96875 -2.460938 -14.96875 -2.765625 -14.96875 C -3.171875 -15.007812 -3.441406 -15.117188 -3.578125 -15.296875 C -3.722656 -15.472656 -3.613281 -15.648438 -3.25 -15.828125 C -3 -15.921875 -2.695312 -15.972656 -2.34375 -15.984375 C -1.988281 -15.992188 -1.644531 -15.988281 -1.3125 -15.96875 C -1.09375 -15.957031 -0.898438 -15.953125 -0.734375 -15.953125 C -0.210938 -15.953125 0.101562 -16.035156 0.21875 -16.203125 C 0.34375 -16.367188 0.414062 -16.695312 0.4375 -17.1875 C 0.476562 -17.707031 0.507812 -18.234375 0.53125 -18.765625 C 0.539062 -19.035156 0.5625 -19.3125 0.59375 -19.59375 C 0.59375 -20.007812 0.703125 -20.382812 0.921875 -20.71875 C 1.148438 -21.03125 1.441406 -21.148438 1.796875 -21.078125 C 2.117188 -20.992188 2.296875 -20.796875 2.328125 -20.484375 C 2.359375 -19.960938 2.375 -19.4375 2.375 -18.90625 C 2.382812 -18.613281 2.382812 -18.316406 2.375 -18.015625 C 2.375 -17.703125 2.378906 -17.375 2.390625 -17.03125 C 2.378906 -16.570312 2.4375 -16.28125 2.5625 -16.15625 C 2.6875 -16.03125 2.992188 -15.96875 3.484375 -15.96875 C 4.296875 -15.96875 5.09375 -15.96875 5.875 -15.96875 C 6.238281 -15.96875 7.304688 -15.992188 9.078125 -16.046875 C 10.859375 -16.097656 11.816406 -15.953125 11.953125 -15.609375 C 12.097656 -15.273438 10.976562 -15.082031 8.59375 -15.03125 C 7.144531 -14.945312 6.023438 -14.90625 5.234375 -14.90625 C 4.703125 -14.925781 4.226562 -14.9375 3.8125 -14.9375 C 3.101562 -14.9375 2.664062 -14.8125 2.5 -14.5625 C 2.332031 -14.320312 2.257812 -13.828125 2.28125 -13.078125 C 2.257812 -12.441406 2.226562 -11.671875 2.1875 -10.765625 C 2.0625 -8.910156 2 -7.019531 2 -5.09375 C 2.050781 -3.757812 2.289062 -2.894531 2.71875 -2.5 C 3.144531 -2.101562 3.703125 -2.03125 4.390625 -2.28125 C 5.085938 -2.53125 5.835938 -2.96875 6.640625 -3.59375 C 7.441406 -4.226562 8.238281 -4.910156 9.03125 -5.640625 C 9.195312 -5.859375 9.40625 -6.066406 9.65625 -6.265625 C 9.726562 -6.335938 9.800781 -6.40625 9.875 -6.46875 Z M 9.875 -6.46875" transform="translate(256.24 241.851)"/></g></g><g><g><path d="M 15.21875 -6.90625 C 14.976562 -6.15625 14.492188 -5.289062 13.765625 -4.3125 C 13.035156 -3.34375 12.117188 -2.71875 11.015625 -2.4375 C 9.921875 -2.164062 8.972656 -2.207031 8.171875 -2.5625 C 7.378906 -2.914062 6.941406 -3.863281 6.859375 -5.40625 C 5.953125 -3.644531 5.085938 -2.519531 4.265625 -2.03125 C 3.453125 -1.539062 2.597656 -1.351562 1.703125 -1.46875 C 0.703125 -1.625 0.0234375 -2.007812 -0.328125 -2.625 C -0.679688 -3.25 -0.800781 -3.96875 -0.6875 -4.78125 C -0.570312 -5.59375 -0.328125 -6.375 0.046875 -7.125 C 0.347656 -7.675781 0.757812 -8.1875 1.28125 -8.65625 C 1.8125 -9.132812 2.363281 -9.507812 2.9375 -9.78125 C 3.644531 -10.144531 4.359375 -10.316406 5.078125 -10.296875 C 5.796875 -10.273438 6.5625 -10.035156 7.375 -9.578125 C 7.394531 -9.566406 7.40625 -9.585938 7.40625 -9.640625 C 7.40625 -9.710938 7.421875 -9.8125 7.453125 -9.9375 C 7.492188 -10.0625 7.566406 -10.160156 7.671875 -10.234375 C 7.941406 -10.429688 8.257812 -10.53125 8.625 -10.53125 C 8.988281 -10.53125 9.269531 -10.34375 9.46875 -9.96875 C 9.507812 -9.5 9.460938 -8.894531 9.328125 -8.15625 C 9.023438 -6.539062 9.019531 -5.378906 9.3125 -4.671875 C 9.613281 -3.960938 10.140625 -3.628906 10.890625 -3.671875 C 11.640625 -3.722656 12.609375 -4.460938 13.796875 -5.890625 C 14.992188 -7.328125 15.46875 -7.664062 15.21875 -6.90625 Z M 1.984375 -3.125 C 2.390625 -2.820312 2.859375 -2.859375 3.390625 -3.234375 C 3.929688 -3.617188 4.445312 -4.15625 4.9375 -4.84375 C 5.425781 -5.53125 5.835938 -6.21875 6.171875 -6.90625 C 6.515625 -7.601562 6.707031 -8.117188 6.75 -8.453125 C 5.738281 -8.992188 4.875 -9.085938 4.15625 -8.734375 C 3.4375 -8.378906 2.863281 -7.796875 2.4375 -6.984375 C 2.007812 -6.179688 1.753906 -5.398438 1.671875 -4.640625 C 1.597656 -3.890625 1.703125 -3.382812 1.984375 -3.125 Z M 1.984375 -3.125" transform="translate(265.944 241.851)"/></g></g><g><g><path d="M 11.125 -5.1875 C 11.820312 -6.28125 12.234375 -6.972656 12.359375 -7.265625 C 12.492188 -7.566406 12.597656 -7.554688 12.671875 -7.234375 C 12.742188 -6.910156 12.519531 -6.179688 12 -5.046875 C 11.476562 -3.910156 10.832031 -3.035156 10.0625 -2.421875 C 9.289062 -1.804688 8.570312 -1.578125 7.90625 -1.734375 C 7.238281 -1.898438 6.757812 -2.363281 6.46875 -3.125 C 6.1875 -3.894531 6.101562 -4.863281 6.21875 -6.03125 C 6.21875 -6.050781 6.226562 -6.097656 6.25 -6.171875 C 6.257812 -6.367188 6.289062 -6.660156 6.34375 -7.046875 C 6.394531 -7.429688 6.429688 -7.832031 6.453125 -8.25 C 6.472656 -8.664062 6.457031 -9.003906 6.40625 -9.265625 C 6.363281 -9.535156 6.242188 -9.632812 6.046875 -9.5625 C 5.566406 -9.300781 5.097656 -8.789062 4.640625 -8.03125 C 4.191406 -7.269531 3.78125 -6.472656 3.40625 -5.640625 C 3.039062 -4.816406 2.785156 -4.148438 2.640625 -3.640625 C 2.578125 -3.472656 2.519531 -3.300781 2.46875 -3.125 C 2.382812 -2.882812 2.289062 -2.648438 2.1875 -2.421875 C 1.925781 -1.742188 1.472656 -1.484375 0.828125 -1.640625 C 0.472656 -1.722656 0.265625 -1.941406 0.203125 -2.296875 C 0.179688 -2.578125 0.171875 -2.84375 0.171875 -3.09375 C 0.171875 -3.257812 0.160156 -3.410156 0.140625 -3.546875 C 0.109375 -5.535156 0.0625 -7.539062 0 -9.5625 C 0.0195312 -9.789062 0.125 -9.945312 0.3125 -10.03125 C 0.5 -10.125 0.722656 -10.171875 0.984375 -10.171875 C 1.179688 -10.171875 1.363281 -10.113281 1.53125 -10 C 1.707031 -9.894531 1.820312 -9.675781 1.875 -9.34375 C 1.882812 -9.226562 1.890625 -9.109375 1.890625 -8.984375 C 1.910156 -8.921875 1.921875 -8.863281 1.921875 -8.8125 C 1.960938 -8.53125 1.984375 -8.296875 1.984375 -8.109375 C 1.984375 -7.804688 2 -7.597656 2.03125 -7.484375 C 2.070312 -7.378906 2.15625 -7.382812 2.28125 -7.5 C 2.414062 -7.625 2.632812 -7.90625 2.9375 -8.34375 C 3.445312 -9.132812 4.078125 -9.800781 4.828125 -10.34375 C 5.523438 -10.84375 6.285156 -11.050781 7.109375 -10.96875 C 7.816406 -10.894531 8.289062 -10.519531 8.53125 -9.84375 C 8.632812 -9.507812 8.6875 -9.164062 8.6875 -8.8125 C 8.6875 -8.46875 8.660156 -8.125 8.609375 -7.78125 C 8.597656 -7.414062 8.570312 -7.046875 8.53125 -6.671875 C 8.5 -6.554688 8.476562 -6.441406 8.46875 -6.328125 C 8.351562 -5.046875 8.390625 -4.1875 8.578125 -3.75 C 8.773438 -3.3125 9.078125 -3.164062 9.484375 -3.3125 C 9.890625 -3.46875 10.4375 -4.09375 11.125 -5.1875 Z M 11.125 -5.1875" transform="translate(280.21 241.851)"/></g></g><g><g><path d="M 6.984375 -5.46875 C 6.703125 -4.894531 6.226562 -4.253906 5.5625 -3.546875 C 4.894531 -2.847656 4.132812 -2.40625 3.28125 -2.21875 C 2.4375 -2.03125 1.628906 -2.320312 0.859375 -3.09375 C 0.566406 -3.4375 0.347656 -3.828125 0.203125 -4.265625 C 0.0664062 -4.710938 0.015625 -5.148438 0.046875 -5.578125 C 0.046875 -5.703125 0.046875 -5.851562 0.046875 -6.03125 C 0.046875 -6.488281 0.0664062 -7.015625 0.109375 -7.609375 C 0.148438 -8.210938 0.238281 -8.753906 0.375 -9.234375 C 0.519531 -9.722656 0.738281 -10.019531 1.03125 -10.125 C 1.882812 -10.332031 2.347656 -10.035156 2.421875 -9.234375 C 2.421875 -8.972656 2.410156 -8.710938 2.390625 -8.453125 C 2.378906 -8.316406 2.375 -8.191406 2.375 -8.078125 C 2.351562 -7.703125 2.332031 -7.320312 2.3125 -6.9375 C 2.3125 -6.644531 2.300781 -6.351562 2.28125 -6.0625 C 2.257812 -4.757812 2.546875 -3.984375 3.140625 -3.734375 C 3.742188 -3.484375 4.429688 -3.742188 5.203125 -4.515625 C 5.972656 -5.285156 6.476562 -5.925781 6.71875 -6.4375 C 6.957031 -6.957031 7.128906 -7.066406 7.234375 -6.765625 C 7.347656 -6.472656 7.265625 -6.039062 6.984375 -5.46875 Z M 2.25 -12.890625 C 2.132812 -12.796875 1.992188 -12.734375 1.828125 -12.703125 C 1.660156 -12.679688 1.515625 -12.695312 1.390625 -12.75 C 1.285156 -12.820312 1.21875 -12.921875 1.1875 -13.046875 C 1.164062 -13.179688 1.15625 -13.34375 1.15625 -13.53125 C 1.15625 -13.5625 1.164062 -13.597656 1.1875 -13.640625 C 1.207031 -13.796875 1.25 -13.957031 1.3125 -14.125 C 1.488281 -14.550781 1.859375 -14.742188 2.421875 -14.703125 C 2.617188 -14.679688 2.773438 -14.601562 2.890625 -14.46875 C 3.003906 -14.332031 3.023438 -14.175781 2.953125 -14 C 2.828125 -13.5625 2.59375 -13.191406 2.25 -12.890625 Z M 2.25 -12.890625" transform="translate(292.053 241.851)"/></g></g></g></svg>